<?xml version="1.0" encoding="UTF-8" standalone="no"?>
<!-- Generator: Adobe Illustrator 13.0.0, SVG Export Plug-In . SVG Version: 6.00 Build 14948)  -->

<svg
   xmlns:dc="http://purl.org/dc/elements/1.1/"
   xmlns:cc="http://creativecommons.org/ns#"
   xmlns:rdf="http://www.w3.org/1999/02/22-rdf-syntax-ns#"
   xmlns:svg="http://www.w3.org/2000/svg"
   xmlns="http://www.w3.org/2000/svg"
   xmlns:xlink="http://www.w3.org/1999/xlink"
   xmlns:sodipodi="http://sodipodi.sourceforge.net/DTD/sodipodi-0.dtd"
   xmlns:inkscape="http://www.inkscape.org/namespaces/inkscape"
   version="1.1"
   id="Layer_1"
   x="0px"
   y="0px"
   width="143.95026"
   height="47.993416"
   viewBox="0 0 143.95026 47.993416"
   enable-background="new 0 0 143.976 47.994"
   xml:space="preserve"
   inkscape:version="0.48.2 r9819"
   sodipodi:docname="0006454 [Converted].svg"><metadata
   id="metadata97"><rdf:RDF><cc:Work
       rdf:about=""><dc:format>image/svg+xml</dc:format><dc:type
         rdf:resource="http://purl.org/dc/dcmitype/StillImage" /></cc:Work></rdf:RDF></metadata><defs
   id="defs95"><linearGradient
   id="linearGradient3979"><stop
     style="stop-color:#834a24;stop-opacity:1;"
     offset="0"
     id="stop3981" /><stop
     id="stop3987"
     offset="0.63106066"
     style="stop-color:#e9c7b0;stop-opacity:1;" /><stop
     style="stop-color:#894d26;stop-opacity:1;"
     offset="1"
     id="stop3983" /></linearGradient><linearGradient
   id="linearGradient3956"><stop
     style="stop-color:#804000;stop-opacity:1;"
     offset="0"
     id="stop3958" /><stop
     id="stop3964"
     offset="0.5"
     style="stop-color:#804000;stop-opacity:1;" /><stop
     style="stop-color:#803300;stop-opacity:1;"
     offset="0.50999999"
     id="stop3966" /><stop
     style="stop-color:#000000;stop-opacity:0"
     offset="1"
     id="stop3960" /></linearGradient><linearGradient
   id="linearGradient3938"><stop
     style="stop-color:#803300;stop-opacity:1;"
     offset="0"
     id="stop3940" /><stop
     id="stop3946"
     offset="0.5"
     style="stop-color:#cc5200;stop-opacity:1;" /><stop
     style="stop-color:#803300;stop-opacity:1;"
     offset="1"
     id="stop3942" /></linearGradient><linearGradient
   id="linearGradient3928"><stop
     style="stop-color:#552200;stop-opacity:1;"
     offset="0"
     id="stop3930" /><stop
     id="stop3936"
     offset="0.5"
     style="stop-color:#7f3300;stop-opacity:1;" /><stop
     style="stop-color:#552200;stop-opacity:1;"
     offset="1"
     id="stop3932" /></linearGradient><linearGradient
   id="linearGradient3918"><stop
     style="stop-color:#00bbc6;stop-opacity:1;"
     offset="0"
     id="stop3920" /><stop
     style="stop-color:#d9e9f7;stop-opacity:1;"
     offset="1"
     id="stop3922" /></linearGradient>
	
	
	
	
	
	
	
	
	
	
	
	
	
	
	
	
	
	
	
	
	
	
	
	
	
	
	
	
	
	
	
	
	
	
	
	
	
	
	
	
	
	
	
	
<radialGradient
   inkscape:collect="always"
   xlink:href="#linearGradient3918"
   id="radialGradient3924"
   cx="71.999992"
   cy="23.997198"
   fx="71.999992"
   fy="23.997198"
   r="71.975128"
   gradientTransform="matrix(1,0,0,0.33340279,-6.3096185,20.347926)"
   gradientUnits="userSpaceOnUse" /><linearGradient
   inkscape:collect="always"
   xlink:href="#linearGradient3928"
   id="linearGradient3934"
   x1="32.52803"
   y1="23.242542"
   x2="89.24633"
   y2="18.226809"
   gradientUnits="userSpaceOnUse" /><linearGradient
   inkscape:collect="always"
   xlink:href="#linearGradient3938"
   id="linearGradient3944"
   x1="36.075222"
   y1="23.080044"
   x2="86.251205"
   y2="8.7311945"
   gradientUnits="userSpaceOnUse" /><linearGradient
   inkscape:collect="always"
   xlink:href="#linearGradient3938"
   id="linearGradient3948"
   x1="63.813541"
   y1="19.516939"
   x2="55.714844"
   y2="8.1632376"
   gradientUnits="userSpaceOnUse" /><linearGradient
   inkscape:collect="always"
   xlink:href="#linearGradient3938"
   id="linearGradient3950"
   x1="66.926987"
   y1="2.4923601"
   x2="75.229362"
   y2="15.134672"
   gradientUnits="userSpaceOnUse" /><linearGradient
   inkscape:collect="always"
   xlink:href="#linearGradient3928"
   id="linearGradient3952"
   x1="40.711861"
   y1="17.426176"
   x2="60.074062"
   y2="20.769596"
   gradientUnits="userSpaceOnUse" /><linearGradient
   inkscape:collect="always"
   xlink:href="#linearGradient3928"
   id="linearGradient3954"
   x1="47.911282"
   y1="12.474196"
   x2="72.119995"
   y2="16.479336"
   gradientUnits="userSpaceOnUse" /><radialGradient
   inkscape:collect="always"
   xlink:href="#linearGradient3956"
   id="radialGradient3962"
   cx="48.647915"
   cy="-65.204979"
   fx="48.647915"
   fy="-65.204979"
   r="24.485943"
   gradientTransform="matrix(3.6117055,-0.00419326,0.00306723,2.6417719,-130.12346,164.49185)"
   gradientUnits="userSpaceOnUse" /><linearGradient
   inkscape:collect="always"
   xlink:href="#linearGradient3979"
   id="linearGradient3985"
   x1="76.28804"
   y1="17.339161"
   x2="77.082848"
   y2="16.860861"
   gradientUnits="userSpaceOnUse" /><linearGradient
   inkscape:collect="always"
   xlink:href="#linearGradient3979"
   id="linearGradient3994"
   x1="89.938225"
   y1="37.041409"
   x2="71.687859"
   y2="8.9622993"
   gradientUnits="userSpaceOnUse" /><radialGradient
   inkscape:collect="always"
   xlink:href="#linearGradient3928"
   id="radialGradient3996"
   cx="75.405838"
   cy="15.245148"
   fx="75.405838"
   fy="15.245148"
   r="2.4186585"
   gradientTransform="matrix(1.1888961,-0.63442241,0.61687265,1.1560082,-23.708403,45.49929)"
   gradientUnits="userSpaceOnUse" /><radialGradient
   inkscape:collect="always"
   xlink:href="#linearGradient3928"
   id="radialGradient3998"
   cx="56.97477"
   cy="9.7748184"
   fx="56.97477"
   fy="9.7748184"
   r="3.2633059"
   gradientTransform="matrix(0.99061453,-0.36103913,0.29094076,0.79827953,-2.340955,22.469858)"
   gradientUnits="userSpaceOnUse" /><linearGradient
   inkscape:collect="always"
   xlink:href="#linearGradient3979"
   id="linearGradient4030"
   gradientUnits="userSpaceOnUse"
   x1="54.616055"
   y1="10.040796"
   x2="54.511631"
   y2="9.0814075"
   gradientTransform="matrix(0.99870349,0.05090523,-0.05090523,0.99870349,0.52779842,-2.6242433)" /><linearGradient
   inkscape:collect="always"
   xlink:href="#linearGradient3979"
   id="linearGradient4033"
   gradientUnits="userSpaceOnUse"
   x1="23.014101"
   y1="11.979404"
   x2="61.910763"
   y2="8.9900265"
   gradientTransform="matrix(0.99870349,0.05090523,-0.05090523,0.99870349,0.52779842,-2.6242433)" /><linearGradient
   inkscape:collect="always"
   xlink:href="#linearGradient3956"
   id="linearGradient4042"
   x1="33.070087"
   y1="14.812204"
   x2="32.978645"
   y2="19.908833"
   gradientUnits="userSpaceOnUse"
   gradientTransform="matrix(1.1119443,0,0,-1.1119443,-4.2991914,40.143623)" /><linearGradient
   inkscape:collect="always"
   xlink:href="#linearGradient3956"
   id="linearGradient4046"
   x1="90.535202"
   y1="41.138344"
   x2="84.22744"
   y2="32.011044"
   gradientUnits="userSpaceOnUse"
   gradientTransform="translate(0.96392954,0.62655411)" /><linearGradient
   inkscape:collect="always"
   xlink:href="#linearGradient3956"
   id="linearGradient4050"
   x1="31.870592"
   y1="9.9044189"
   x2="31.74362"
   y2="20.250076"
   gradientUnits="userSpaceOnUse" /><radialGradient
   inkscape:collect="always"
   xlink:href="#linearGradient3918"
   id="radialGradient4080"
   gradientUnits="userSpaceOnUse"
   gradientTransform="matrix(1,0,0,0.33340279,-6.3096185,20.347926)"
   cx="71.999992"
   cy="23.997198"
   fx="71.999992"
   fy="23.997198"
   r="71.975128" /><linearGradient
   inkscape:collect="always"
   xlink:href="#linearGradient3956"
   id="linearGradient4082"
   gradientUnits="userSpaceOnUse"
   x1="31.870592"
   y1="9.9044189"
   x2="31.74362"
   y2="20.250076" /><linearGradient
   inkscape:collect="always"
   xlink:href="#linearGradient3956"
   id="linearGradient4084"
   gradientUnits="userSpaceOnUse"
   gradientTransform="translate(0.96392954,0.62655411)"
   x1="90.535202"
   y1="41.138344"
   x2="84.22744"
   y2="32.011044" /><radialGradient
   inkscape:collect="always"
   xlink:href="#linearGradient3956"
   id="radialGradient4086"
   gradientUnits="userSpaceOnUse"
   gradientTransform="matrix(3.6117055,-0.00419326,0.00306723,2.6417719,-130.12346,164.49185)"
   cx="48.647915"
   cy="-65.204979"
   fx="48.647915"
   fy="-65.204979"
   r="24.485943" /><linearGradient
   inkscape:collect="always"
   xlink:href="#linearGradient3928"
   id="linearGradient4088"
   gradientUnits="userSpaceOnUse"
   x1="32.52803"
   y1="23.242542"
   x2="89.24633"
   y2="18.226809" /><linearGradient
   inkscape:collect="always"
   xlink:href="#linearGradient3938"
   id="linearGradient4090"
   gradientUnits="userSpaceOnUse"
   x1="36.075222"
   y1="23.080044"
   x2="86.251205"
   y2="8.7311945" /><linearGradient
   inkscape:collect="always"
   xlink:href="#linearGradient3979"
   id="linearGradient4092"
   gradientUnits="userSpaceOnUse"
   gradientTransform="matrix(0.99870349,0.05090523,-0.05090523,0.99870349,0.52779842,-2.6242433)"
   x1="23.014101"
   y1="11.979404"
   x2="61.910763"
   y2="8.9900265" /><linearGradient
   inkscape:collect="always"
   xlink:href="#linearGradient3979"
   id="linearGradient4094"
   gradientUnits="userSpaceOnUse"
   gradientTransform="matrix(0.99870349,0.05090523,-0.05090523,0.99870349,0.52779842,-2.6242433)"
   x1="54.616055"
   y1="10.040796"
   x2="54.511631"
   y2="9.0814075" /><linearGradient
   inkscape:collect="always"
   xlink:href="#linearGradient3938"
   id="linearGradient4096"
   gradientUnits="userSpaceOnUse"
   x1="63.813541"
   y1="19.516939"
   x2="55.714844"
   y2="8.1632376" /><linearGradient
   inkscape:collect="always"
   xlink:href="#linearGradient3938"
   id="linearGradient4098"
   gradientUnits="userSpaceOnUse"
   x1="66.926987"
   y1="2.4923601"
   x2="75.229362"
   y2="15.134672" /><linearGradient
   inkscape:collect="always"
   xlink:href="#linearGradient3928"
   id="linearGradient4100"
   gradientUnits="userSpaceOnUse"
   x1="47.911282"
   y1="12.474196"
   x2="72.119995"
   y2="16.479336" /><linearGradient
   inkscape:collect="always"
   xlink:href="#linearGradient3928"
   id="linearGradient4102"
   gradientUnits="userSpaceOnUse"
   x1="40.711861"
   y1="17.426176"
   x2="60.074062"
   y2="20.769596" /><radialGradient
   inkscape:collect="always"
   xlink:href="#linearGradient3928"
   id="radialGradient4104"
   gradientUnits="userSpaceOnUse"
   gradientTransform="matrix(0.99061453,-0.36103913,0.29094076,0.79827953,-2.340955,22.469858)"
   cx="56.97477"
   cy="9.7748184"
   fx="56.97477"
   fy="9.7748184"
   r="3.2633059" /><linearGradient
   inkscape:collect="always"
   xlink:href="#linearGradient3979"
   id="linearGradient4106"
   gradientUnits="userSpaceOnUse"
   x1="89.938225"
   y1="37.041409"
   x2="71.687859"
   y2="8.9622993" /><linearGradient
   inkscape:collect="always"
   xlink:href="#linearGradient3979"
   id="linearGradient4108"
   gradientUnits="userSpaceOnUse"
   x1="76.28804"
   y1="17.339161"
   x2="77.082848"
   y2="16.860861" /><radialGradient
   inkscape:collect="always"
   xlink:href="#linearGradient3928"
   id="radialGradient4110"
   gradientUnits="userSpaceOnUse"
   gradientTransform="matrix(1.1888961,-0.63442241,0.61687265,1.1560082,-23.708403,45.49929)"
   cx="75.405838"
   cy="15.245148"
   fx="75.405838"
   fy="15.245148"
   r="2.4186585" /></defs><sodipodi:namedview
   pagecolor="#ffffff"
   bordercolor="#666666"
   borderopacity="1"
   objecttolerance="10"
   gridtolerance="10"
   guidetolerance="10"
   inkscape:pageopacity="0"
   inkscape:pageshadow="2"
   inkscape:window-width="1920"
   inkscape:window-height="1018"
   id="namedview93"
   showgrid="false"
   inkscape:snap-global="false"
   inkscape:zoom="5.0878467"
   inkscape:cx="51.203867"
   inkscape:cy="33.847611"
   inkscape:window-x="-8"
   inkscape:window-y="-8"
   inkscape:window-maximized="1"
   inkscape:current-layer="Layer_1"
   inkscape:object-nodes="true"
   inkscape:object-paths="true"
   inkscape:snap-intersection-paths="true"
   inkscape:snap-smooth-nodes="true"
   inkscape:snap-midpoints="true"
   fit-margin-top="0"
   fit-margin-left="0"
   fit-margin-right="0"
   fit-margin-bottom="0" />

<g
   id="g4052"
   transform="translate(6.2847511,-4.3519504)"><path
     d="m 65.751382,5.087461 c 32.764,-4.084 72.862998,9.707 71.896998,19.984 -0.922,10.233 -31.71,12.869 -66.362998,24.551 -35.062,11.91 -81.2030005,-18.761 -77.3430005,-24.551 6.06100005,-9.136 39.1330005,-15.856 71.8090005,-19.984 l 0,0 0,0 z"
     id="path5"
     inkscape:connector-curvature="0"
     style="fill:url(#radialGradient4080)" /><path
     sodipodi:nodetypes="cssscccccccccccccccccccccccccccccccccccccccccccccccccccccccccccccccccccccccccccccccccccccccccccssssscccccccccccccccccccccccccccccccccccccccccccccccccc"
     inkscape:connector-curvature="0"
     id="path4048"
     d="M 26.9375,17.5 26.75,17.5625 26.5,17.59375 c 0.107847,0.0712 -0.08756,0.250062 -0.125,0.09375 C 26.228355,17.71985 26.243837,17.903917 26.1875,18 L 26.25,18.09375 26.1875,18.3125 C 26.1244,18.39955 25.894171,18.28047 26,18.1875 l -0.03125,-0.03125 -0.125,-0.0625 0,0.03125 -0.0625,0.15625 c -0.263347,0.06947 -0.43295,-0.353651 -0.21875,-0.5 L 25.40625,17.75 l -0.125,-0.15625 c -0.146458,-0.01036 -0.228542,0.235414 -0.375,0.125 -0.110243,0.105469 -0.302838,0.252789 -0.46875,0.15625 -0.135633,0.0462 -0.0091,0.200986 -0.0625,0.28125 0.01627,0.06057 0.118299,0.18298 0.1875,0.09375 l 0.09375,0.09375 C 24.63948,18.462522 24.443172,18.484737 24.5,18.625 c -0.08716,0.09752 -0.342991,0.260513 -0.21875,0.4375 0.07916,0.0893 0.159574,0.281327 0.03125,0.375 l -0.125,0.09375 c -0.0029,0.167643 0.234276,0.191231 0.34375,0.1875 L 24.625,19.625 l 0,-0.15625 0.15625,-0.03125 c 0.191272,0.04182 0.357918,0.335727 0.5625,0.15625 l 0.15625,-0.125 0.125,0 0.125,0.1875 c 0.05011,0.118537 0.298699,0.08165 0.28125,-0.0625 0.103649,-0.04366 0.311354,0.0071 0.34375,-0.15625 l 0.125,0 c 0.08054,0.158752 0.293119,0.359005 0.46875,0.1875 l 0.09375,-0.125 0.25,-0.03125 0.125,0 0.0625,0.125 0.15625,0.0625 0.15625,-0.03125 c 0.08214,-0.07032 0.0097,-0.226651 0.125,-0.25 l 0.28125,0.125 0.25,0.15625 0.375,-0.15625 c 0.114886,0.02076 0.365705,-0.06066 0.40625,0.125 0.225948,0.157512 0.307068,-0.240263 0.53125,-0.1875 l 0.1875,0.15625 0.25,0.09375 0.09375,-0.09375 0.09375,0.0625 0,-0.15625 c 0.118674,-0.08288 -0.108673,-0.141828 0,-0.21875 0.107404,-0.1029 0.233267,0.04941 0.1875,0.15625 l -0.0625,0.03125 0.375,0.03125 -0.3125,0.15625 c -0.100126,0.0957 0.06516,0.237123 0.125,0.28125 l 0.15625,-0.125 0.09375,0.0625 0.0625,-0.34375 0.25,-0.03125 0,-0.21875 0.25,0.28125 L 31.5,19.875 31.743165,19.540648 C 31.866392,19.396946 32.093556,19.449255 32.25,19.40625 l 0.125,0.21875 0.0625,-0.28125 0.0625,0.25 -0.125,0.1875 0.09375,0.1875 c 0.137011,0.179757 0.284868,-0.07883 0.4375,-0.0625 -0.06904,0.134159 0.194761,0.04396 0.0625,-0.03125 l 0.125,-0.15625 C 33.12148,19.62632 33.02993,19.534766 32.9375,19.5625 l -0.09375,-0.09375 0,-0.03125 0.1875,0.09375 0.1875,-0.0625 0,0.1875 0.34375,0.09375 0.21875,-0.125 0.09375,-0.03125 0.09375,0.125 c -0.0075,0.167147 0.274685,-0.05209 0.1875,0.15625 0.0523,-0.07487 0.248489,-0.113538 0.1875,-0.25 L 34.40625,19.5 34.375,19.375 34.53125,19.34375 34.5625,19.5 l 0.1875,0.03125 0.15625,-0.0625 0.03125,0.125 c 0.179822,0.09476 0.381886,-0.04895 0.53125,-0.125 l 0.09375,0.15625 0.03125,0.15625 -0.15625,0.03125 0.15625,0.09375 0,-0.0625 c 0.614583,-0.04167 1.229167,-0.08333 1.84375,-0.125 0.708333,-0.489583 1.416667,-0.979167 2.125,-1.46875 -0.447917,-0.15625 -0.895833,-0.3125 -1.34375,-0.46875 l -0.25,0.1875 C 37.697917,17.895833 37.427083,17.822917 37.15625,17.75 L 37.3125,17.9375 37.25,18.21875 C 37.248033,18.369743 37.043759,18.21357 37,18.25 L 36.96875,18.1875 36.8125,18.09375 c -0.131424,-0.06294 -0.04041,0.157831 0,0.15625 l 0.03125,0 0.09375,0.09375 c 0.0417,0.09594 -0.201359,-0.04258 0,0.09375 l -0.0625,0 -0.25,-0.125 -0.25,-0.15625 -0.03125,0 L 36.3125,17.96875 36,17.78125 35.8125,17.8125 c -0.112775,0.06053 -0.06912,0.222828 -0.1875,0.28125 l -0.03125,0.125 -0.125,-0.09375 -0.125,-0.03125 L 35.28125,18 l 0.03125,-0.0625 -0.1875,0.125 -0.28125,-0.25 -0.40399,0.08782 -0.31476,0.06843 0.28125,-0.28125 c -0.205792,0.07251 -0.525982,0.01738 -0.65625,0.25 -0.12983,0.20257 -0.410454,0.05158 -0.5625,0 l -0.125,-0.125 -0.125,-0.0625 0.03125,0.21875 -0.25,-0.3125 c -0.06872,-0.104314 -0.126866,0.0543 -0.125,0.09375 l 0.0625,0 -0.125,0.125 c -0.08121,0.07118 -0.129055,-0.170198 -0.15625,0 l 0,0.09375 -0.09375,0 c -0.07639,0.03472 0.01389,-0.09722 -0.0625,-0.0625 l 0,-0.15625 C 32.14336,17.580892 31.980728,17.7897 31.875,17.6875 L 31.84375,17.75 31.75,17.90625 l -0.09375,0 c -0.132161,-0.07122 0.16618,-0.279574 -0.0625,-0.21875 0.0019,0.03945 -0.05628,0.198064 -0.125,0.09375 l -0.03125,-0.0625 c 0.01034,-0.07912 0.175571,0.02806 0.0625,-0.09375 -0.108452,0.115516 -0.373117,-0.152268 -0.34375,0.125 l -0.125,-0.03125 c -0.03559,-0.145302 -0.257206,-0.174742 -0.34375,-0.0625 -0.103937,-0.03824 -0.16117,0.114918 -0.15625,0.1875 -0.10941,-0.03874 -0.173307,0.119638 -0.09375,0.1875 -0.0066,0.147783 -0.232433,0.03279 -0.25,-0.03125 -0.28159,0.0291 -0.583522,-0.03203 -0.78125,-0.25 -0.09508,0.02107 -0.275993,-0.0591 -0.21875,-0.1875 l -0.1875,0.25 -0.0625,0.125 c -0.149645,-1.3e-5 -0.13344,-0.192202 -0.25,-0.25 -0.0094,0.156649 -0.237278,0.008 -0.28125,0 L 28.25,17.65625 l -0.0625,0.1875 c -0.117211,0.09579 -0.216479,-0.08411 -0.34375,-0.03125 -0.247794,0.08826 -0.28462,-0.29763 -0.53125,-0.25 l -0.125,0.03125 0.03125,-0.25 L 26.9375,17.5 z M 31.5,17.625 c 0.0607,0.04237 0.162687,-0.02076 0.125,-0.09375 -0.04221,-0.06673 -0.232452,-0.03355 -0.125,0.0625 l 0,0.03125 z m 3.8125,0.3125 0.125,-0.125 -0.125,0.0625 0,0.0625 z"
     style="fill:url(#linearGradient4082);stroke:none" /><path
     sodipodi:nodetypes="ccccccccccc"
     inkscape:connector-curvature="0"
     id="path4044"
     d="m 84.620181,32.782805 -0.03125,-0.1875 -0.28125,0.25 -0.125,0.0625 -0.09375,0 0,-0.0625 c -0.110139,0.01372 -0.138698,0.209684 -0.03125,0.25 l 0,0.15625 0.34375,0.1875 0.03125,0.0625 0,0.09375 0.03125,0 -0.09375,0.28125 0.03125,0.125 0.40625,0.03125 0.1875,0 0.09375,0.21875 0,0.15625 c -0.0774,0.103616 -0.28194,0.205325 -0.21875,0.375 l 0.1875,0.1875 0.25,0.0625 0.125,0.1875 0.1875,0.0625 -0.25,0.25 0.3125,0.125 0.15625,0.3125 0.21875,-0.125 -0.09375,0.15625 -0.28125,0.25 0.09375,0.125 0.15625,-0.09375 0.125,0.0625 -0.03125,0.1875 0.125,0.03125 0.03125,0.15625 -0.03125,0.125 0.0625,-0.0625 0.25,0.21875 -0.03125,-0.21875 0.25,-0.1875 0.1875,0.03125 0.15625,0.125 0.0625,-0.03125 0.125,0.09375 0.09375,0.0625 0.0625,-0.0625 0.15625,0.0625 -0.09375,-0.15625 0.1875,-0.1875 0.15625,-0.0625 0.09375,0 0.03125,0.09375 -0.03125,0.25 0.15625,-0.125 0.15625,-0.1875 0.15625,0 0.0625,-0.0625 0.15625,0.0625 c -0.572917,-1.395833 -1.145833,-2.791667 -1.71875,-4.1875 -0.739583,0.15625 -1.479167,0.3125 -2.21875,0.46875 z"
     style="fill:url(#linearGradient4084);stroke:none" /><path
     sodipodi:nodetypes="ccccc"
     inkscape:connector-curvature="0"
     id="path3926"
     d="m 86.355191,21.883371 c -0.09838,0.189081 0.387739,0.135037 0.09375,0 -0.02021,-0.0451 -0.200924,-0.121998 -0.09375,0 z m -0.90625,0.21875 c -0.269651,0.04416 -0.424534,0.305057 -0.6875,0.375 l 0.1875,0.09375 -0.125,0.25 0.21875,0.03125 c -0.0087,0.333155 -0.503228,-0.191515 -0.46875,0.15625 0.03658,0.163237 -0.147619,0.500124 0.125,0.53125 l -0.0625,0.15625 c -0.217649,-0.07898 -0.201847,-0.366885 -0.28125,-0.53125 l -0.15625,0.21875 c -0.207269,-0.190419 -0.769391,-0.391862 -0.78125,0.0625 -0.200608,0.153695 -0.204649,0.514835 -0.5,0.53125 l -0.0625,0.28125 -0.0625,0.21875 -0.125,-0.15625 -0.0625,0.25 -0.0625,0.25 c -0.130717,-0.290557 -0.543818,0.219111 -0.21875,0.25 0.07038,0.207448 -0.380708,0.0328 -0.15625,-0.03125 -0.185202,-0.0869 -0.222626,0.353868 -0.375,0.09375 -0.162777,0.146793 -0.345211,-0.15273 -0.125,-0.21875 -0.186611,-0.05569 -0.149535,0.22302 -0.28125,0.28125 0.387921,-0.05488 -0.297492,0.500939 -0.0625,0.15625 -0.254318,0.0062 0.116162,-0.164117 -0.09375,-0.21875 0.09085,-0.270956 -0.524866,-0.08905 -0.21875,0.0625 -0.285467,0.1005 0.28524,0.206941 0.125,0.375 0.09269,0.265182 -0.41691,0.433346 -0.4375,0.125 -0.441051,-0.06962 8.99e-4,0.646823 -0.375,0.6875 -0.178034,0.05383 -0.332561,0.24334 -0.28125,0.4375 -0.176524,-0.212433 -0.243702,0.429249 -0.21875,0 l -0.25,0.15625 0.15625,-0.125 -0.25,0.09375 -0.25,-0.21875 c -0.240469,0.02478 -0.468654,0.283959 -0.40625,0.53125 l -0.3125,-0.09375 0.28125,-0.03125 -0.25,0 c 0.127257,0.05503 0.265204,-0.292318 0.0625,-0.15625 -0.187742,-0.141867 -0.211812,0.233869 -0.40625,0.21875 -0.184697,0.01256 -0.343646,0.305492 -0.09375,0.34375 0.09493,-0.149253 0.494767,-0.256397 0.4375,0.03125 0.01535,0.179193 -0.388962,0.304403 -0.34375,0.0625 l -0.3125,0.125 c -0.05772,-0.10823 -0.277035,0.119925 -0.15625,-0.09375 0.191747,-0.146121 -0.314316,-0.331667 -0.1875,-0.125 l 0.09375,0.21875 c -0.138146,-0.173252 -0.319386,0.336383 -0.0625,0.03125 0.172258,0.175075 -0.285784,0.303513 -0.21875,0.0625 -0.249579,0.03971 -0.446017,0.521497 -0.71875,0.28125 -0.303592,0.03254 0.09699,0.329603 -0.09375,0.46875 0.20109,0.08846 -0.150315,0.166085 0,0.28125 -0.22812,0.306699 -0.647247,-0.235744 -0.90625,0.0625 -0.717699,0.451193 -1.606427,0.360038 -2.40625,0.53125 0.01612,0.0305 -0.04606,0.241317 -0.125,0.125 -0.04217,0.08166 0.138442,0.403172 -0.0625,0.21875 -0.02102,0.377266 -0.53318,0.326653 -0.78125,0.40625 0.162265,0.152866 -0.187761,0.605881 -0.25,0.28125 -0.142969,0.110085 -0.432331,0.106698 -0.5,-0.09375 l -0.25,0.09375 0.21875,0.21875 c -0.223411,-0.117163 -0.65053,-0.168142 -0.71875,0.15625 -0.548599,0.163303 -1.074173,0.440229 -1.65625,0.46875 l -0.0625,-0.21875 c -0.110193,0.14524 -0.338709,0.407399 -0.5625,0.28125 l -0.0625,0.15625 0.25,0 0.25,-0.03125 c -0.243132,0.05307 -0.120269,0.506794 -0.40625,0.46875 l 0.03125,-0.0625 -0.34375,0.125 -0.09375,-0.25 c -0.136729,-0.0051 0.0053,0.268255 -0.1875,0.125 -0.139646,0.319163 -0.02603,-0.324236 -0.21875,-0.125 -0.134168,-0.216569 -0.589122,0.08602 -0.3125,0.25 -0.196909,0.195808 -0.692563,-0.1635 -0.71875,0.25 -0.36309,0.202208 -0.843787,0.05705 -1.125001,-0.21875 -0.05663,0.187722 -0.04273,0.543029 0.21875,0.5625 l -0.21875,0.0625 0.125,0.125 -0.21875,-0.0625 c 0.08425,0.356547 -0.48963,0.232226 -0.5,-0.03125 l -0.125,-0.03125 0.121583,0.395144 0.0034,0.01111 -0.28125,0.1875 c -0.28733,-0.02276 -0.213736,-0.631386 -0.5625,-0.46875 l 0.0625,0.3125 c -0.211561,0.308868 -0.688913,-0.341211 -0.75,0.125 0.01957,0.128888 0.349321,0.371322 0.0625,0.40625 l -0.28125,0.03125 0.125,-0.1875 c -0.443734,0.32011 -1.070451,-0.290004 -1.46875,0.1875 -0.2176,0.275375 -0.507548,0.554754 -0.875,0.59375 0.118449,-0.364666 -0.555148,-0.292182 -0.375,0.03125 l 0.09375,0.1875 c -0.224778,-0.14994 -0.756845,-0.145543 -0.6875,-0.53125 -0.111454,-0.249495 -0.386966,0.113783 -0.1875,0.21875 -0.104737,0.382571 -0.673162,-0.325659 -0.625,0.15625 0.05136,0.108824 0.243328,-0.124037 0.125,0.09375 -0.149091,0.114702 -0.468865,-0.206561 -0.5,0.09375 -0.05473,0.25197 -0.550071,0.581904 -0.59375,0.15625 -0.06512,-0.261935 0.687364,-0.610703 -0.15625,-0.21875 -0.252737,0.141302 -0.497263,-0.203802 -0.75,-0.0625 0.107457,0.06154 0.149907,0.430975 -0.0625,0.21875 -0.04089,-0.134507 -0.277772,-0.319175 -0.34375,-0.09375 0.268047,0.162677 -0.32435,0.537614 -0.34375,0.21875 -0.396319,-0.387541 -0.86083,0.309359 -1.28125,0.03125 l -0.28125,0 -0.09375,-0.15625 c 0.0045,-0.216925 -0.385061,0.165073 -0.125,0.1875 -0.04523,0.114476 0.157249,0.341619 -0.09375,0.3125 0.06598,0.316388 -0.400682,-0.09432 -0.15625,-0.15625 -0.0682,-0.266778 -0.335218,0.212352 -0.40625,-0.0625 -0.176639,-0.202298 -0.504354,-0.524353 -0.78125,-0.3125 -2.15584,0.513591 -4.355773,0.792192 -6.5625,0.96875 -0.05436,0.191221 -0.457426,0.196721 -0.34375,-0.03125 -0.05329,-0.370547 -0.710986,0.268417 -0.59375,-0.25 l -0.1875,-0.0625 c 0.06496,0.251743 -0.345113,-0.0017 -0.28125,0.25 -0.240212,-0.09788 -0.512584,-0.63552 -0.78125,-0.28125 l -0.03125,0.1875 c -0.122373,0.08464 -0.294046,-0.266568 -0.28125,0.03125 -0.145431,0.161603 0.402464,0.155686 0.15625,0.3125 0.11247,0.126768 0.382415,0.486095 0.0625,0.53125 -0.08198,0.173824 0.408987,0.09641 0.125,0.21875 -0.268759,0.04474 -0.267656,-0.343953 -0.46875,-0.4375 -0.0179,-0.145649 0.327503,-0.399213 0.03125,-0.4375 -0.09463,-0.241806 -0.285339,0.08712 -0.4375,0.0625 l -0.0625,0.1875 c -0.162494,-0.01394 -0.397061,0.3056 -0.5,0.0625 -0.477767,-0.408626 -1.148908,-0.07339 -1.6875,-0.3125 -0.179161,0.0013 -0.311792,0.52892 -0.0625,0.40625 0.08064,0.144366 0.602983,0.196084 0.375,0.40625 l -0.21875,0.09375 -0.1875,0.125 c 0.255657,0.232881 -0.341439,0.378865 -0.1875,0.625 -0.259913,0.247044 0.336963,0.03497 0.25,0.28125 l -0.09375,0.15625 -0.125,0.21875 -0.0625,-0.09375 0.03125,0.21875 0,0.25 c -0.129271,-0.105212 -0.434887,0.243599 -0.15625,0.1875 l 0.0625,0.09375 c -0.40625,0.729167 -0.8125,1.458333 -1.21875,2.1875 l 0,0.21875 0.28125,-0.1875 0.3125,0.1875 c 0.202535,-0.03542 -0.195398,0.291405 0.0625,0.25 0.181273,-0.128561 0.329398,0.149586 0.46875,0.1875 -0.0408,-0.107391 0.07296,-0.329306 0.1875,-0.15625 0.1743,-0.09716 0.649758,0.0099 0.375,0.25 0.03611,0.304027 0.55387,0.475673 0.6875,0.15625 0.09044,0.299753 0.541096,-0.04083 0.375,-0.25 0.01174,-0.278581 0.525271,-0.0409 0.375,0.15625 0.181672,0.278275 0.420479,-0.18003 0.625,-0.0625 1.058619,0.08471 2.110766,0.219637 3.15625,0.40625 l 0.15625,-0.34375 c -0.07574,-0.270398 0.391224,0.01403 0.125,0.0625 -0.103972,0.326046 0.364461,0.07319 0.4375,0.25 -0.05672,-0.159407 0.324844,-0.388665 0.25,-0.125 0.09716,0.234473 0.23896,-0.213475 0.375,-0.0625 l 0.34375,0.0625 c 0.259057,0.156048 0.427632,-0.562617 0.65625,-0.21875 0.513123,-0.200089 1.149221,-0.255829 1.625,0.0625 0.600488,0.22073 0.888811,-0.632656 1.46875,-0.53125 0.375,-0.125 0.75,-0.25 1.125,-0.375 0.24904,0.02656 0.309312,0.406612 0.59375,0.34375 -0.113439,-0.337787 0.651956,-0.516614 0.5,-0.09375 0.106079,0.261046 0.555559,0.170515 0.59375,-0.09375 l 0.34375,-0.21875 c 0.319646,0.0069 -0.285367,-0.590705 0.1875,-0.25 -0.191607,-0.321546 0.535463,-0.319955 0.34375,0 0.05819,0.131996 0.30801,0.338576 0.40625,0.125 l 0.125,0.25 c 0.08848,-0.109254 -0.05566,-0.370502 0.15625,-0.375 -0.01889,0.254668 0.136295,0.754715 0.46875,0.5 l 0.0625,-0.125 -0.03125,0.125 c 0.237885,-0.389661 0.805505,0.558243 0.875,-0.09375 l 0.25,-0.125 -0.15625,-0.28125 c 0.240481,0.163684 0.907463,0.234661 0.84375,-0.21875 0.151121,-0.264636 0.354547,0.177136 0.53125,0.0625 l -0.21875,0.28125 c 0.311538,0.143933 0.495243,-0.528108 0.8125,-0.28125 0.52543,-0.230357 1.364357,-0.09006 1.5625,-0.78125 0.199185,-0.230734 0.298109,0.239907 0.46875,0.28125 l -0.03125,0.15625 c 0.06878,-0.170396 0.420388,-0.121011 0.3125,-0.375 0.287317,0.127664 0.399659,0.520975 0.75,0.53125 -0.227193,-0.482753 0.749964,-0.700843 0.71875,-0.15625 0.320386,10e-4 -0.06736,-0.894217 0.25,-0.03125 l 0.09375,0.21875 -0.03125,-0.40625 0.1875,0.0625 -0.125,-0.3125 c 0.467656,0.09122 0.85907,-0.210361 1.25,-0.40625 0.306323,0.0042 0.627179,0.134253 0.75,0.4375 0.09503,-0.115062 -0.124654,-0.639761 0.1875,-0.28125 -0.02917,0.08868 0.240001,0.538074 0.1875,0.21875 0.131284,-0.575371 0.803586,-0.657277 1.281251,-0.78125 0.284145,0.01427 0.363342,0.324825 0.5625,0.46875 0.02091,-0.230735 -0.292219,-0.38635 -0.15625,-0.625 0.03319,0.221718 0.343553,-0.177602 0.28125,0.0625 l -0.03125,0.1875 c 0.1198,-0.212796 0.441263,-0.161157 0.53125,-0.40625 0.296966,-0.03586 -0.04072,-0.237486 0,-0.375 -0.196136,-0.06459 0.123915,-0.283925 0.21875,-0.15625 l 0.3125,-0.03125 -0.125,0.3125 0.21875,-0.21875 0.15625,0 -0.25,0.15625 0.34375,-0.125 c 0.204479,-0.07799 -0.01468,0.272473 0.1875,0.21875 l 0.09375,-0.15625 -0.21875,-0.1875 c 0.06698,-0.320133 0.357573,0.301427 0.5,0.03125 l 0,0.0625 0.09375,-0.1875 0.25,-0.09375 -0.03125,-0.03125 0.1875,-0.0625 c 0.145825,0.144791 -0.413019,0.40619 0.125,0.15625 0.140632,-0.07652 -0.221684,-0.247848 0.03125,-0.25 l -0.09375,-0.28125 c 0.17436,-0.216044 0.37763,0.226805 0.375,0.375 0.07026,-0.0741 -0.01793,-0.231139 0.125,-0.25 -0.224252,-0.02387 0.0107,-0.323277 0.125,-0.1875 l 0.0625,-0.03125 -0.1875,0.21875 0.28125,-0.25 c 0.207594,0.199709 0.547668,0.09133 0.65625,-0.15625 l 0.25,0.0625 c 0.201116,-0.118327 -0.138616,-0.381673 0.0625,-0.5 -0.161788,-0.277832 0.465151,-0.05384 0.1875,0.09375 0.0979,0.01034 0.409754,-0.269657 0.21875,0 l 0.34375,-0.15625 0.03125,0.25 0.334352,-0.243165 c 0.0729,-0.273758 0.429552,0.30372 0.384398,-0.03809 l -0.1875,-0.125 c -0.350672,-0.02247 0.151141,-0.578655 0.1875,-0.21875 0.149803,0.09319 0.418565,0.227169 0.5,-0.03125 l -0.03125,0.1875 0.334352,0.243165 c 0.205095,0.140454 0.123985,-0.168289 0.0094,-0.211915 0.0538,-0.158159 -0.123091,-0.335053 -0.28125,-0.28125 0.176584,-0.278412 0.505222,-0.432052 0.625,-0.75 l 0.25,0.125 -0.03125,0.21875 0.09375,-0.34375 c 0.1154,0.101712 -0.135996,0.338968 0.09375,0.34375 0.157133,0.1479 0.431784,0.05635 0.46875,-0.15625 l 0.15625,0 c 0.02507,-0.364886 -0.842808,0.06092 0.08853,-0.34114 0.152205,-0.181 0.378813,0.454891 0.317721,0.02864 0.06777,0.180071 -0.01111,-0.160344 0.125,-0.125 l 0,-0.09375 0.1875,-0.3125 c 0.169761,0.193154 0.378705,-0.36211 0.125,-0.21875 l -0.125,0.09375 0,-0.1875 c 0.236224,0.09255 0.336461,-0.508958 0.5,-0.15625 0.218462,-0.0367 0.165294,-0.591343 0.4375,-0.34375 0.114886,-0.02076 0.365705,0.06066 0.40625,-0.125 0.15868,-0.09729 0.466252,-0.02508 0.3125,0.21875 0.282488,-0.272169 0.344681,-0.928831 0.875,-0.8125 0.160065,0.02679 -0.04886,0.294188 0.15625,0.21875 l 0.09375,0.1875 c -0.01334,0.215549 0.37664,-0.152327 0.15625,-0.1875 -4.96e-4,-0.281061 0.338086,-0.448929 0.5625,-0.28125 l -0.125,0.28125 0.03125,0 0.25,-0.1875 c -0.170123,-0.107899 0.30818,-0.282664 -0.03125,-0.28125 l -0.09375,-0.28125 c 0.338589,-0.252323 0.647774,-0.537248 0.9375,-0.84375 0.176277,0.216775 0.322224,-0.464347 0.28125,-0.03125 l 0.15625,-0.25 0.25,-0.15625 c 0.16669,0.0088 0.09639,0.506192 0.28125,0.28125 -0.07725,-0.354279 0.457454,-0.556323 0.625,-0.21875 l 0.21875,0 c 0.192511,0.05523 -0.142194,-0.343067 0.15625,-0.15625 0.226193,0.142638 -0.230456,0.126333 -0.0625,0.28125 0.09167,0.08672 0.324298,-0.238605 0.21875,0 0.192817,0.09982 0.442954,-0.177035 0.25,-0.3125 -0.338587,0.163972 -0.364356,-0.450975 -0.03125,-0.4375 0.09657,0.303607 0.674944,0.01016 0.375,-0.21875 l 0.34375,0.09375 -0.1875,-0.28125 0.34375,0.1875 c 0.285822,-0.0033 -0.02394,0.737004 0.25,0.34375 0.191771,-0.311196 0.02305,-0.81214 0.40625,-1 l 0.09296,-0.402838 c 0.06409,-0.289017 0.598827,0.138516 0.250787,0.184088 l -0.15625,0.125 0.0625,0.15625 0.21875,-0.3125 c 0.181706,-0.03045 0.758996,-0.01133 0.65625,-0.375 l -0.125,-0.125 0.15625,-0.125 c 0.05088,0.321636 0.619605,0.140205 0.53125,-0.15625 l 0.125,0.15625 0.21875,0.125 c 0.07996,-0.15215 0.221801,0.08933 0.34375,0.0625 l 0.125,-0.28125 c -0.116171,-0.06502 0.251799,-0.06609 0.09375,-0.1875 l -0.09375,-0.03125 0.1875,-0.125 0.25,0.1875 -0.25,-0.28125 c 0.120928,0.258294 0.55142,-0.07549 0.21875,-0.25 l 0.21875,-0.3125 -0.1875,-0.125 c 0.06878,-0.144263 -0.300134,-0.112489 0.03125,-0.1875 0.371981,-0.120213 -1.084805,0.01528 0.25,-0.28125 l -0.34375,0.0625 c -0.02339,0.08741 -0.238362,0.333182 -0.34375,0.15625 -0.04589,-0.06606 0.14117,-0.229828 -0.0625,-0.0625 l -0.03125,-0.25 -0.09375,-0.15625 0.25,0 0.09375,-0.125 0.3125,-0.0625 -0.21875,-0.03125 0.15625,-0.15625 -0.15625,-0.1875 c 0.176339,-0.208291 -0.606335,-0.06231 0.09375,-0.1875 -0.101998,-0.0076 -0.156881,-0.238474 -0.03125,-0.25 -0.161975,-0.187908 -0.506713,0.35691 -0.40625,-0.09375 -0.303222,-0.373639 -0.677456,-0.72644 -0.78125,-1.21875 l -0.3125,-0.25 c 0.09211,-0.407174 0.26101,-0.825224 0.15625,-1.25 l -0.1875,0.0625 0.1875,0.25 -0.03125,0.25 -0.25,-0.1875 -0.28125,-0.125 c -0.09286,-0.1612 0.309162,-0.294363 0.0625,-0.375 0.03066,-0.222721 -0.328515,0.03118 -0.34375,-0.1875 l -0.0625,0.03125 0.09375,-0.28125 c 0.272905,0.0771 0.08983,-0.461766 -0.09375,-0.3125 l 0.03125,-0.0625 -0.3125,0.03125 c 0.269063,0.123638 -0.211607,0.201729 -0.21875,0 -0.193746,0.04357 -0.122506,0.276894 0.03125,0.3125 -0.113082,0.05663 -0.233131,0.418857 -0.375,0.21875 l -0.03125,0.125 c -0.155155,-0.239199 -0.02065,-0.635069 0.28125,-0.65625 0.05264,-0.09557 -0.130886,-0.151704 -0.125,-0.03125 z m -4.15625,3.125 c 0.0884,0.153501 0.0884,-0.153501 0,0 z m 5.1875,-3.09375 c 0.02955,0.02524 -0.13275,0.313546 0.0625,0.21875 -0.280637,0.165475 0.385355,0.316598 0.21875,0.0625 -0.02659,-0.05908 -0.126118,-0.42521 -0.28125,-0.28125 z m -0.21875,0.15625 c -9.18e-4,0.158163 -0.215894,-0.03003 -0.21875,0.125 -0.15935,-0.154381 0.199728,-0.143816 0.21875,-0.125 z m -0.09375,0.28125 -0.21875,0.125 0.03125,-0.1875 0.1875,0.0625 z m 0.53125,0.46875 c 0.07984,0.112108 0.07984,-0.112108 0,0 z m 1.1875,3 c 0.226712,0.01489 0.195676,0.413863 -0.03125,0.375 l 0,-0.09375 0,-0.28125 0.03125,0 z m 0.5,1.40625 -0.09375,0.03125 0.0625,-0.0625 0.03125,0.03125 z m 0.34375,0.21875 c 0.04293,-0.05766 -0.103643,-0.03251 0,0 z m -11.78125,0.75 -0.03125,0.125 -0.0625,-0.15625 0.09375,0.03125 z m 10.71875,0.09375 0.3125,0.21875 c -0.101479,0.05473 -0.447038,-0.127157 -0.3125,-0.21875 z m -0.40625,0.40625 c 0.186434,0.06166 0.03518,-0.331619 0,0 z m 0,0 c -0.104041,-0.12795 -0.08187,0.131892 0,0 z m 0.625,0.1875 c 0.201067,-0.02793 -0.14591,-0.138084 0,0 z m -1.71875,0.40625 c -0.145412,0.09046 0.225725,0.235464 0.125,0.03125 0.05264,-0.09557 -0.130886,-0.151704 -0.125,-0.03125 z m 0.03125,0.125 c -0.138887,-0.09584 -0.283475,0.225108 -0.0625,0.09375 l 0.0625,-0.0625 0,-0.03125 z m -2.5625,1.15625 -0.03125,0.03125 -0.1875,-0.125 0.21875,-0.03125 0,0.125 z m -14.25,0.625 0.03125,0.1875 c -0.170641,0.303118 -0.106216,-0.4457 -0.03125,-0.1875 z m 13.25,0.15625 0.15625,0 -0.1875,-0.0625 0.03125,0.0625 z m 0.4375,0.125 0.375,0.03125 -0.402838,-0.09296 -0.0034,-7.87e-4 0.03125,0.0625 z m -25.500001,3.15625 c 0.327684,0.02747 -0.302746,0.356847 -0.125,0.0625 l 0.125,-0.125 0,0.0625 z m -11.75,0.34375 0.125,-0.03125 -0.09375,0 -0.03125,0.03125 z m 29.687501,0.375 0.125,-0.03125 c -0.02221,-0.06508 -0.120515,-0.02369 -0.125,0.03125 z m -0.34375,0.21875 0.09375,-0.03125 -0.03125,-0.03125 -0.0625,0.0625 z m -28.687501,0.125 c 0.08665,0.210254 -0.306734,0.02285 -0.09375,-0.03125 l 0.09375,0.03125 z m 26.656251,0.78125 c -0.05365,0.197693 0.164316,-0.153046 0,0 z m -1.25,0.25 0.125,-0.15625 -0.0625,-0.03125 0.28125,-0.0625 -0.334352,0.243165 -0.0094,0.0068 z m 0.96875,0 c -0.0015,0.129161 0.235045,0.11419 0.15625,-0.03125 0.241679,-0.04646 -0.137941,-0.08176 -0.15625,-0.1875 l 0,0.21875 z m 0.5625,0 c -0.0472,-0.203912 0.279327,0.148869 0.1875,-0.09375 -0.165591,0.04409 -0.588796,-0.378607 -0.1875,0.09375 z m -0.375,0.25 c 0.108679,-0.06629 0.0782,0.188565 0.1875,0.0625 -0.173019,-0.02216 -0.124868,-0.595797 -0.1875,-0.0625 z m -3.15625,0.3125 c 0.172482,0.125141 -0.284627,0.423267 -0.09375,0.09375 l 0.03125,-0.09375 0.0625,0 z m 0,0.625 -0.21875,0.34375 c -0.06589,0.336615 0.582532,0.148392 0.3125,-0.09375 l 0,-0.1875 -0.03125,-0.09375 -0.0625,0.03125 z"
     style="fill:url(#radialGradient4086);stroke:none" /><path
     sodipodi:nodetypes="cccccc"
     inkscape:connector-curvature="0"
     id="path3074"
     d="m 32.709321,23.657528 c 2.252404,3.733472 4.848436,7.368765 7.958808,10.857103 12.684588,0.664512 29.288812,-1.140792 45.590629,-14.07743 L 89.065043,7.6939076 68.54696,5.393674 C 56.232132,8.8909814 42.570697,12.992625 32.709321,23.657528 z"
     style="fill:url(#linearGradient4088);stroke:#000000;stroke-width:0.5;stroke-linecap:butt;stroke-linejoin:round;stroke-miterlimit:4;stroke-opacity:1;stroke-dasharray:none;stroke-dashoffset:0" /><path
     sodipodi:nodetypes="cccc"
     inkscape:connector-curvature="0"
     id="path3844"
     d="M 86.488782,8.7980197 68.684974,6.4977861 C 53.725294,10.878073 43.391179,15.634771 35.837639,23.243486 51.963426,24.800898 70.11457,19.251511 86.488782,8.7980197 z"
     style="fill:url(#linearGradient4090);stroke:#000000;stroke-width:0.40000001;stroke-linecap:butt;stroke-linejoin:round;stroke-miterlimit:4;stroke-opacity:1;stroke-dasharray:none;stroke-dashoffset:0" /><path
     sodipodi:nodetypes="cccc"
     inkscape:connector-curvature="0"
     id="path3846"
     d="M 79.128034,13.030449 70.663175,11.696314 C 62.388638,14.996515 53.856442,18.791495 47.660839,23.197482 58.575852,21.829423 69.283449,18.52425 79.128034,13.030449 z"
     style="fill:#aa4400;stroke:#000000;stroke-width:0.5;stroke-linecap:butt;stroke-linejoin:round;stroke-miterlimit:4;stroke-opacity:1;stroke-dasharray:none;stroke-dashoffset:0" /><path
     inkscape:connector-curvature="0"
     id="path3848"
     d="M 70.755184,11.650309 68.822988,6.4057768"
     style="fill:none;stroke:#000000;stroke-width:0.5;stroke-linecap:butt;stroke-linejoin:round;stroke-miterlimit:4;stroke-opacity:1;stroke-dasharray:none;stroke-dashoffset:0" /><g
     id="g4035"><path
       inkscape:connector-curvature="0"
       style="fill:url(#linearGradient4092);stroke:none"
       d="M 41.493575,8.9135879 23.790222,9.3880098 c -1.04719,-0.029976 -1.050104,2.5064382 0.05999,2.5063032 l 17.748273,-0.127936 c 0.694575,-0.01386 1.227254,-0.520667 1.614561,-0.981583 l 0.658581,-0.02901 -0.07711,-0.9426478 -0.564953,0.033785 C 42.853959,9.3504361 42.47616,8.9583892 41.493575,8.9135879 z"
       id="path4005" /><path
       inkscape:connector-curvature="0"
       style="fill:url(#linearGradient4094);stroke:none"
       d="m 69.042233,8.6593791 -25.75025,1.1907214 0.07711,0.9426475 25.653439,-1.1330746 c 0.913133,-0.088572 0.76938,-0.9958607 0.0197,-1.0002943 z"
       id="path4000" /><path
       style="fill:none;stroke:#000000;stroke-width:0.40000001;stroke-linecap:butt;stroke-linejoin:round;stroke-miterlimit:4;stroke-opacity:1;stroke-dasharray:none;stroke-dashoffset:0"
       d="M 69.030371,8.6593598 43.23052,9.8439407 C 42.854915,9.3474579 42.470399,8.9554435 41.487814,8.9106422 L 23.796856,9.393843 c -1.04719,-0.029976 -1.068722,2.501877 0.04138,2.501743 l 17.77486,-0.141136 c 0.694575,-0.01386 1.215728,-0.50452 1.603035,-0.965436 L 69.012543,9.6718161 c 0.913133,-0.088572 0.767507,-1.0080229 0.01782,-1.0124565 z"
       id="path3870"
       inkscape:connector-curvature="0"
       sodipodi:nodetypes="ccccccccc" /></g><path
     sodipodi:nodetypes="ccccc"
     inkscape:connector-curvature="0"
     id="path3850"
     d="m 61.508245,20.299187 -11.271144,-1.886191 4.278434,-2.116215 12.327642,2.327648 z"
     style="fill:url(#linearGradient4096);stroke:#000000;stroke-width:0.40000001;stroke-linecap:butt;stroke-linejoin:round;stroke-miterlimit:4;stroke-opacity:1;stroke-dasharray:none;stroke-dashoffset:0" /><path
     sodipodi:nodetypes="ccccc"
     inkscape:connector-curvature="0"
     id="path3852"
     d="m 73.055418,16.020753 -13.157336,-1.978201 5.428551,-2.162219 12.122299,2.061614 z"
     style="fill:url(#linearGradient4098);stroke:#000000;stroke-width:0.40000001;stroke-linecap:butt;stroke-linejoin:round;stroke-miterlimit:4;stroke-opacity:1;stroke-dasharray:none;stroke-dashoffset:0" /><path
     sodipodi:nodetypes="ccccc"
     inkscape:connector-curvature="0"
     id="path3854"
     d="m 59.898082,14.042552 0,0.874089 11.682657,1.817614 1.712871,-0.756848 z"
     style="fill:url(#linearGradient4100);stroke:#000000;stroke-width:0.40000001;stroke-linecap:butt;stroke-linejoin:round;stroke-miterlimit:4;stroke-opacity:1;stroke-dasharray:none;stroke-dashoffset:0" /><path
     sodipodi:nodetypes="ccccc"
     inkscape:connector-curvature="0"
     id="path3856"
     d="m 61.508246,20.299187 -11.271144,-1.886191 4e-6,1.150117 8.815393,1.466147 z"
     style="fill:url(#linearGradient4102);stroke:#000000;stroke-width:0.40000001;stroke-linecap:butt;stroke-linejoin:round;stroke-miterlimit:4;stroke-opacity:1;stroke-dasharray:none;stroke-dashoffset:0" /><path
     sodipodi:nodetypes="cc"
     inkscape:connector-curvature="0"
     id="path3858"
     d="M 88.420978,11.098253 C 71.640409,23.82137 54.56313,28.060829 34.87154,27.061874"
     style="fill:none;stroke:#000000;stroke-width:0.40000001;stroke-linecap:butt;stroke-linejoin:round;stroke-miterlimit:4;stroke-opacity:1;stroke-dasharray:none;stroke-dashoffset:0" /><path
     style="fill:none;stroke:#000000;stroke-width:0.40000001;stroke-linecap:butt;stroke-linejoin:round;stroke-miterlimit:4;stroke-opacity:1;stroke-dasharray:none;stroke-dashoffset:0"
     d="M 87.500884,14.732622 C 70.76632,26.765669 56.403317,30.453072 36.803736,29.77615"
     id="path3860"
     inkscape:connector-curvature="0"
     sodipodi:nodetypes="cc" /><path
     sodipodi:nodetypes="cc"
     inkscape:connector-curvature="0"
     id="path3862"
     d="M 86.856819,17.630917 C 70.582301,29.387936 58.381518,32.523283 38.643923,32.214398"
     style="fill:none;stroke:#000000;stroke-width:0.40000001;stroke-linecap:butt;stroke-linejoin:round;stroke-miterlimit:4;stroke-opacity:1;stroke-dasharray:none;stroke-dashoffset:0" /><path
     style="fill:none;stroke:#000000;stroke-width:0.40000001;stroke-linecap:butt;stroke-linejoin:round;stroke-miterlimit:4;stroke-opacity:1;stroke-dasharray:none;stroke-dashoffset:0"
     d="M 88.973034,7.7399119 C 72.974545,19.818964 50.560724,26.128633 32.939344,23.749538"
     id="path3864"
     inkscape:connector-curvature="0"
     sodipodi:nodetypes="cc" /><path
     sodipodi:nodetypes="ccccc"
     inkscape:connector-curvature="0"
     id="path3868"
     d="m 56.355722,10.592202 c -1.19887,0.631479 -2.444353,0.343472 -2.484252,-0.460047 2.441484,-3.4801448 4.183784,-2.8393567 6.306965,-1.0674062 l -1.338461,0.065227 C 57.518091,8.4413281 56.748665,8.5742527 56.355722,10.592202 z"
     style="fill:url(#radialGradient4104);stroke:#000000;stroke-width:0.5;stroke-linecap:butt;stroke-linejoin:round;stroke-miterlimit:4;stroke-opacity:1;stroke-dasharray:none;stroke-dashoffset:0" /><g
     style="stroke-width:0.40000001;stroke-miterlimit:4;stroke-dasharray:none"
     id="g4019"><path
       style="fill:url(#linearGradient4106);fill-opacity:1;fill-rule:nonzero;stroke:none"
       d="m 80.59375,22.5625 -0.84375,0.40625 0.625,1 c -0.258799,0.566212 -0.395564,1.113821 0.03125,2 l 6.71875,10.5 c 0.470516,0.936013 4.714371,0.69585 4.1875,-0.28125 L 82.84375,24.5 c -0.341784,-0.604823 -1.035498,-0.815282 -1.625,-0.9375 l -0.625,-1 z"
       id="path3989"
       inkscape:connector-curvature="0" /><path
       style="fill:url(#linearGradient4108);fill-opacity:1;fill-rule:nonzero;stroke:none"
       d="m 72.1875,9.3125 c -0.310765,0.037582 -0.501142,0.3987444 -0.28125,0.8125 l 8.25,13.5 0.8125,-0.46875 -8.1875,-13.5 C 72.589529,9.3705912 72.373959,9.2899505 72.1875,9.3125 z"
       id="path3974"
       inkscape:connector-curvature="0" /><path
       sodipodi:nodetypes="ccccccccc"
       inkscape:connector-curvature="0"
       id="path3872"
       d="m 71.890695,10.134609 8.494647,13.849402 c -0.258799,0.566212 -0.421414,1.090698 0.0054,1.976877 l 6.728306,10.51907 c 0.470516,0.936013 4.733499,0.698156 4.206628,-0.278944 L 82.834554,24.501195 C 82.49277,23.896372 81.813575,23.670451 81.224073,23.548233 L 72.790369,9.6698806 C 72.279113,8.9081238 71.538867,9.4726001 71.890695,10.134609 z"
       style="fill:none;stroke:#000000;stroke-width:0.40000001;stroke-linecap:butt;stroke-linejoin:round;stroke-miterlimit:4;stroke-opacity:1;stroke-dasharray:none;stroke-dashoffset:0" /></g><path
     sodipodi:nodetypes="ccccc"
     inkscape:connector-curvature="0"
     id="path3866"
     d="m 74.895605,16.204772 c -1.006444,0.435465 -2.036645,0.457132 -1.714294,-0.243586 0.699104,-3.755986 3.081431,-3.033963 4.491679,-1.154516 l -1.000804,0.507457 c -0.92266,-1.371491 -1.819874,-0.88403 -1.776581,0.890645 z"
     style="fill:url(#radialGradient4110);stroke:#000000;stroke-width:0.40000001;stroke-linecap:butt;stroke-linejoin:round;stroke-miterlimit:4;stroke-opacity:1;stroke-dasharray:none;stroke-dashoffset:0" /></g></svg>