<?xml version="1.0" encoding="UTF-8" standalone="no"?>
<!-- Created with Inkscape (http://www.inkscape.org/) -->

<svg
   xmlns:dc="http://purl.org/dc/elements/1.1/"
   xmlns:cc="http://creativecommons.org/ns#"
   xmlns:rdf="http://www.w3.org/1999/02/22-rdf-syntax-ns#"
   xmlns:svg="http://www.w3.org/2000/svg"
   xmlns="http://www.w3.org/2000/svg"
   xmlns:xlink="http://www.w3.org/1999/xlink"
   xmlns:sodipodi="http://sodipodi.sourceforge.net/DTD/sodipodi-0.dtd"
   xmlns:inkscape="http://www.inkscape.org/namespaces/inkscape"
   width="344.90106"
   height="801.62817"
   id="svg2"
   version="1.1"
   inkscape:version="0.48.0 r9654"
   sodipodi:docname="8700~1.SVG">
  <defs
     id="defs4">
    <linearGradient
       inkscape:collect="always"
       id="linearGradient5565">
      <stop
         style="stop-color:#ffffff;stop-opacity:1"
         offset="0"
         id="stop5567" />
      <stop
         style="stop-color:#e6e6e6;stop-opacity:1"
         offset="1"
         id="stop5569" />
    </linearGradient>
    <linearGradient
       id="linearGradient4227">
      <stop
         id="stop4229"
         offset="0"
         style="stop-color:#818100;stop-opacity:1" />
      <stop
         style="stop-color:#d6d616;stop-opacity:1;"
         offset="0.21856469"
         id="stop4237" />
      <stop
         style="stop-color:#c6c600;stop-opacity:1"
         offset="0.48458213"
         id="stop4231" />
      <stop
         style="stop-color:#ffff00;stop-opacity:1"
         offset="0.77216351"
         id="stop4233" />
      <stop
         id="stop4235"
         offset="1"
         style="stop-color:#585800;stop-opacity:1" />
    </linearGradient>
    <linearGradient
       id="linearGradient4209">
      <stop
         id="stop4211"
         offset="0"
         style="stop-color:#adad00;stop-opacity:1" />
      <stop
         style="stop-color:#ffff00;stop-opacity:1"
         offset="0.77168226"
         id="stop4213" />
      <stop
         id="stop4215"
         offset="1"
         style="stop-color:#747400;stop-opacity:1" />
    </linearGradient>
    <linearGradient
       id="linearGradient4201">
      <stop
         style="stop-color:#747400;stop-opacity:1;"
         offset="0"
         id="stop4203" />
      <stop
         style="stop-color:#747400;stop-opacity:0;"
         offset="1"
         id="stop4205" />
    </linearGradient>
    <linearGradient
       id="linearGradient4191">
      <stop
         style="stop-color:#adad00;stop-opacity:1"
         offset="0"
         id="stop4193" />
      <stop
         id="stop4225"
         offset="0.10208426"
         style="stop-color:#d6d600;stop-opacity:1;" />
      <stop
         id="stop4199"
         offset="0.20416853"
         style="stop-color:#ffff00;stop-opacity:1" />
      <stop
         style="stop-color:#747400;stop-opacity:1"
         offset="1"
         id="stop4195" />
    </linearGradient>
    <linearGradient
       id="linearGradient4102">
      <stop
         style="stop-color:#cccccc;stop-opacity:1"
         offset="0"
         id="stop4104" />
      <stop
         id="stop4114"
         offset="0.5"
         style="stop-color:#a0a0a0;stop-opacity:1" />
      <stop
         style="stop-color:#cccccc;stop-opacity:1"
         offset="1"
         id="stop4106" />
    </linearGradient>
    <linearGradient
       id="linearGradient4092">
      <stop
         style="stop-color:#f88d8f;stop-opacity:1"
         offset="0"
         id="stop4094" />
      <stop
         id="stop4100"
         offset="0.5"
         style="stop-color:#8b070b;stop-opacity:1" />
      <stop
         style="stop-color:#ec0e12;stop-opacity:1"
         offset="1"
         id="stop4096" />
    </linearGradient>
    <filter
       inkscape:collect="always"
       id="filter4076"
       x="-0.048250761"
       width="1.0965015"
       y="-0.18296872"
       height="1.3659374"
       color-interpolation-filters="sRGB">
      <feGaussianBlur
         inkscape:collect="always"
         stdDeviation="4.0095881"
         id="feGaussianBlur4078" />
    </filter>
    <filter
       inkscape:collect="always"
       id="filter4088"
       color-interpolation-filters="sRGB">
      <feGaussianBlur
         inkscape:collect="always"
         stdDeviation="3.0502069"
         id="feGaussianBlur4090" />
    </filter>
    <linearGradient
       inkscape:collect="always"
       xlink:href="#linearGradient4092"
       id="linearGradient4098"
       x1="281.42859"
       y1="610.93359"
       x2="485.71429"
       y2="610.93359"
       gradientUnits="userSpaceOnUse" />
    <linearGradient
       inkscape:collect="always"
       xlink:href="#linearGradient4102"
       id="linearGradient4108"
       x1="300.23215"
       y1="580.21936"
       x2="466.91071"
       y2="580.21936"
       gradientUnits="userSpaceOnUse" />
    <linearGradient
       inkscape:collect="always"
       xlink:href="#linearGradient4102"
       id="linearGradient4118"
       gradientUnits="userSpaceOnUse"
       x1="300.23215"
       y1="580.21936"
       x2="466.91071"
       y2="580.21936"
       gradientTransform="matrix(0.71202057,0,0,1.1719298,110.46068,-99.757005)" />
    <filter
       inkscape:collect="always"
       id="filter4123"
       x="-0.18091771"
       width="1.3618354"
       y="-0.067371845"
       height="1.1347437"
       color-interpolation-filters="sRGB">
      <feGaussianBlur
         inkscape:collect="always"
         stdDeviation="8.946946"
         id="feGaussianBlur4125" />
    </filter>
    <linearGradient
       inkscape:collect="always"
       xlink:href="#linearGradient4191"
       id="linearGradient4197"
       x1="238.48512"
       y1="-369.1745"
       x2="267.7655"
       y2="-369.1745"
       gradientUnits="userSpaceOnUse"
       gradientTransform="matrix(1,0,0,0.83741266,0,-57.273102)" />
    <linearGradient
       inkscape:collect="always"
       xlink:href="#linearGradient4227"
       id="linearGradient4223"
       x1="336.53571"
       y1="298.79074"
       x2="423.46429"
       y2="298.79074"
       gradientUnits="userSpaceOnUse" />
    <linearGradient
       inkscape:collect="always"
       xlink:href="#linearGradient4227"
       id="linearGradient4245"
       x1="346.87454"
       y1="281.17938"
       x2="411.69687"
       y2="281.17938"
       gradientUnits="userSpaceOnUse" />
    <linearGradient
       inkscape:collect="always"
       xlink:href="#linearGradient5565"
       id="linearGradient5571"
       x1="383.27985"
       y1="272.64999"
       x2="364.8501"
       y2="240.06236"
       gradientUnits="userSpaceOnUse" />
  </defs>
  <sodipodi:namedview
     id="base"
     pagecolor="#ffffff"
     bordercolor="#666666"
     borderopacity="1.0"
     inkscape:pageopacity="0.0"
     inkscape:pageshadow="2"
     inkscape:zoom="0.1767767"
     inkscape:cx="214.42363"
     inkscape:cy="112.50877"
     inkscape:document-units="px"
     inkscape:current-layer="g5800"
     showgrid="false"
     inkscape:window-width="1280"
     inkscape:window-height="911"
     inkscape:window-x="-4"
     inkscape:window-y="-4"
     inkscape:window-maximized="1"
     inkscape:object-paths="true"
     inkscape:snap-center="true"
     inkscape:snap-object-midpoints="true"
     inkscape:snap-midpoints="true"
     inkscape:snap-global="false"
     showguides="true"
     inkscape:guide-bbox="true"
     fit-margin-top="0"
     fit-margin-left="0"
     fit-margin-right="0"
     fit-margin-bottom="0" />
  <metadata
     id="metadata7">
    <rdf:RDF>
      <cc:Work
         rdf:about="">
        <dc:format>image/svg+xml</dc:format>
        <dc:type
           rdf:resource="http://purl.org/dc/dcmitype/StillImage" />
        <dc:title />
      </cc:Work>
    </rdf:RDF>
  </metadata>
  <g
     inkscape:label="Layer 1"
     inkscape:groupmode="layer"
     id="layer1"
     transform="translate(-203.47992,-133.28012)">
    <g
       id="g5800">
      <g
         id="g4080">
        <path
           style="fill:#000000;stroke:none"
           d="m 383.5625,697.75 c -49.1977,0 -90.98297,14.71155 -106.0625,35.15625 l 0,22.46875 212.125,0 0,-22.46875 C 474.54547,712.46155 432.7602,697.75 383.5625,697.75 z"
           id="path3907"
           inkscape:connector-curvature="0" />
        <path
           style="fill:#000000;stroke:none"
           d="m 293.80287,701.28367 c -1.41422,0 -20.09774,-1.1979 -26.16295,-1.06066 -8.73898,0.19774 -12.48361,4.27043 -15.90991,8.83883 l -7.42462,9.8995 c 1.19593,18.20478 1.56519,27.22361 10.25305,25.45584 0,0 4.30895,-8.05449 5.74524,-10.87177 1.93998,-3.80526 10.1307,-6.60665 15.64474,-6.8059 6.25202,-0.22593 17.50089,1.41421 17.50089,1.41421 z"
           id="path3917"
           inkscape:connector-curvature="0"
           sodipodi:nodetypes="cssccsscc" />
        <path
           style="font-size:medium;font-style:normal;font-variant:normal;font-weight:normal;font-stretch:normal;text-indent:0;text-align:start;text-decoration:none;line-height:normal;letter-spacing:normal;word-spacing:normal;text-transform:none;direction:ltr;block-progression:tb;writing-mode:lr-tb;text-anchor:start;baseline-shift:baseline;color:#000000;fill:#000000;stroke:none;stroke-width:0.89999998;marker:none;visibility:visible;display:inline;overflow:visible;enable-background:accumulate;font-family:Sans;-inkscape-font-specification:Sans"
           d="m 321.5,240.21875 c -45.92579,-0.66348 -61.12196,9.90098 -81.84375,37.75 -39.7439,53.41376 -36.68965,126.06133 -35.6875,186.59375 1.53057,92.4501 43.43409,194.86351 51.73874,297.1788 -2.23891,1.8928 0.0836,15.79433 -0.80128,25.67384 l -5.50364,61.44882 52.65625,-2.9375 -14.60364,-62.11803 c -2.67901,-11.39542 -3.76668,-21.17842 -5.71195,-24.10372 -7.61709,-108.84052 -51.36101,-210.20284 -52.77448,-295.57971 -1.00587,-60.75682 -1.92012,-127.31179 30.75,-171.21875 18.41046,-24.74271 23.12605,-26.07955 73.375,-27.125 l 12.4375,1.125 2.25,-24.90625 -12.4375,-1.125 c -4.65552,-0.42001 -9.28334,-0.59037 -13.84375,-0.65625 z"
           id="path3909"
           inkscape:connector-curvature="0"
           sodipodi:nodetypes="ssscsccscssccccs" />
        <path
           style="fill:url(#linearGradient4098);fill-opacity:1;stroke:none"
           d="m 281.42858,890.93361 0,-560 c 0,0 7.38095,-40.71429 102.14285,-40.71429 94.7619,0 102.14286,40.71429 102.14286,40.71429 l 0,560 c 0,0 -20.95238,40.71429 -102.14286,40.71429 -81.19048,0 -102.14285,-40.71429 -102.14285,-40.71429 z"
           id="path3052"
           inkscape:connector-curvature="0"
           sodipodi:nodetypes="cczcczc" />
        <path
           style="fill:#b00b0e;fill-opacity:1;stroke:none;filter:url(#filter4088)"
           d="m 337.84375,351.28125 0,569.15501 c 0,0 9.3616,7.12624 45.71875,7.12624 36.35715,0 45.75,-7.12624 45.75,-7.12624 l 0,-569.15501 c -14.57887,1.86835 -29.92251,2.90625 -45.75,2.90625 -15.82749,0 -31.13988,-1.0379 -45.71875,-2.90625 z"
           id="path3919"
           inkscape:connector-curvature="0"
           sodipodi:nodetypes="ccsccsc"
           transform="matrix(1,0,0,1.0136238,0,-12.71135)" />
        <path
           style="fill:#b00b0e;fill-opacity:1;stroke:none;filter:url(#filter4076)"
           d="m 383.5625,290.21875 c -71.89192,0 -93.48082,23.40774 -99.71875,34.71875 26.56504,11.12139 61.46682,17.875 99.71875,17.875 38.24647,0 73.15511,-6.75644 99.71875,-17.875 -6.24488,-11.31468 -27.84723,-34.71875 -99.71875,-34.71875 z"
           id="path3825"
           inkscape:connector-curvature="0"
           transform="matrix(0.93557772,0,0,0.93557772,24.718905,22.890657)" />
        <path
           style="fill:#ececec;stroke:none"
           d="m 306.42857,380.93361 c -1.81707,-13.09989 -2.15885,-28.78154 -7.5,-35.71429 L 315,350.57647 c -3.86441,5.08271 -5.7143,20.23802 -8.57143,30.35714 z"
           id="path3827"
           inkscape:connector-curvature="0"
           sodipodi:nodetypes="cccc" />
        <path
           sodipodi:type="arc"
           style="fill:#ececec;stroke:none"
           id="path3829"
           sodipodi:cx="357.14285"
           sodipodi:cy="353.25504"
           sodipodi:rx="6.7857141"
           sodipodi:ry="1.9642857"
           d="m 363.92857,353.25504 c 0,1.08484 -3.03807,1.96428 -6.78572,1.96428 -3.74764,0 -6.78571,-0.87944 -6.78571,-1.96428 0,-1.08485 3.03807,-1.96429 6.78571,-1.96429 3.74765,0 6.78572,0.87944 6.78572,1.96429 z"
           transform="matrix(0.99998595,0.00530172,-0.00530172,0.99998595,3.6635944,-1.8885081)" />
        <path
           transform="matrix(0.9612364,-0.16292465,0.11945011,1.3110837,70.754937,-55.99024)"
           d="m 363.92857,353.25504 c 0,1.08484 -3.03807,1.96428 -6.78572,1.96428 -3.74764,0 -6.78571,-0.87944 -6.78571,-1.96428 0,-1.08485 3.03807,-1.96429 6.78571,-1.96429 3.74765,0 6.78572,0.87944 6.78572,1.96429 z"
           sodipodi:ry="1.9642857"
           sodipodi:rx="6.7857141"
           sodipodi:cy="353.25504"
           sodipodi:cx="357.14285"
           id="path3831"
           style="fill:#ececec;stroke:none"
           sodipodi:type="arc" />
        <path
           sodipodi:type="arc"
           style="fill:url(#linearGradient4223);fill-opacity:1;stroke:none"
           id="path3833"
           sodipodi:cx="380"
           sodipodi:cy="298.79074"
           sodipodi:rx="43.214287"
           sodipodi:ry="4.2857141"
           d="m 423.21429,298.79074 c 0,2.36694 -19.3477,4.28572 -43.21429,4.28572 -23.86659,0 -43.21429,-1.91878 -43.21429,-4.28572 0,-2.36693 19.3477,-4.28571 43.21429,-4.28571 23.86659,0 43.21429,1.91878 43.21429,4.28571 z"
           transform="matrix(1,0,0,1.9407403,0,-285.11625)" />
        <rect
           style="fill:url(#linearGradient4245);fill-opacity:1;stroke:none"
           id="rect3835"
           width="64.285713"
           height="28.794144"
           x="347.14285"
           y="266.78232"
           ry="3.2142859"
           rx="16.428572" />
        <rect
           rx="19.428572"
           ry="2.4202495"
           y="266.74026"
           x="347.1008"
           height="5.2154989"
           width="64.369804"
           id="rect3837"
           style="fill:#8e8e03;fill-opacity:1;stroke:none" />
        <rect
           transform="matrix(0,1,-1,0,0,0)"
           ry="6.8214288"
           rx="10.602461"
           y="-342.30228"
           x="238.74721"
           height="40.755581"
           width="28.756184"
           id="rect3887"
           style="fill:#cccccc;stroke:none" />
        <path
           style="fill:#000000;stroke:none"
           d="m 277.5,733.875 0,23.125 c 30.91231,29.73344 78.29343,35.01813 106.72992,34.53125 28.43649,-0.48688 80.32321,-2.53835 105.39508,-34.46875 l 0,-23.15625 c -14.74139,20.68626 -56.65059,35.625 -106.0625,35.625 -49.43997,0 -91.34779,-14.9517 -106.0625,-35.65625 z"
           id="path3901"
           inkscape:connector-curvature="0"
           sodipodi:nodetypes="cczccsc" />
        <path
           style="fill:#e6e6e6;stroke:none"
           d="m 253.58701,741.00934 c 12.56784,1.90923 19.02796,0.4559 25.63178,-4.01678 l 1.86153,22.88893 c -9.51568,3.54879 -18.40498,4.38794 -25.46122,1.85981 z"
           id="path3915"
           inkscape:connector-curvature="0"
           sodipodi:nodetypes="ccccc" />
        <path
           style="fill:#ececec;fill-opacity:1;stroke:none"
           d="m 300.23215,417.36218 c 0,0 13.41665,10.71429 83.33928,10.71429 69.92263,0 83.33929,-10.71429 83.33929,-10.71429 l 0,315 c 0,0 -21.98809,17.07825 -83.33929,17.07825 -61.3512,0 -83.33928,-17.07825 -83.33928,-17.07825 z"
           id="rect3822"
           inkscape:connector-curvature="0"
           sodipodi:nodetypes="czcczcc" />
        <rect
           style="fill:#f2f2f2;stroke:none"
           id="rect4127"
           width="16.87818"
           height="40.877575"
           x="244.6862"
           y="-342.36328"
           rx="10.602461"
           ry="1.8214288"
           transform="matrix(0,1,-1,0,0,0)" />
        <rect
           style="fill:#000000;stroke:none"
           id="rect3889"
           width="37.348022"
           height="21.34742"
           x="234.45128"
           y="-356.09821"
           rx="18.674011"
           ry="6.8214293"
           transform="matrix(0,1,-1,0,0,0)" />
        <rect
           style="fill:url(#linearGradient4197);fill-opacity:1;stroke:none"
           id="rect3839"
           width="28.704922"
           height="41.204323"
           x="238.77284"
           y="-387.02667"
           rx="14.352461"
           ry="6.1310573"
           transform="matrix(0,1,-1,0,0,0)" />
        <path
           style="fill:#4d4d4d;stroke:none"
           d="m 373,242.86219 c 49.28205,2.35797 113.22167,-1.95244 172,28.5 3.81181,-5.18014 5.15445,-9.4348 0,-12.62501 C 505.82462,234.49061 466.1649,231.48545 426.40955,225.61573 411.91616,223.47584 409.29182,216.83436 401.5,206.86219 l -50.09099,16 c -1.45551,5.04006 -1.24763,20.98079 4.35667,20.74012 z"
           id="path3891"
           inkscape:connector-curvature="0"
           sodipodi:nodetypes="ccssccsc" />
        <path
           id="path4068"
           transform="translate(203.47992,133.28012)"
           d="M 198.03125 73.59375 L 147.9375 89.59375 C 147.16591 92.265574 146.8743 97.986044 147.59375 102.75 L 151.75 102.34375 C 155.52307 107.36405 161.10399 106.24157 163.125 101.03125 L 191.90625 97.53125 C 200.71467 96.45629 203.56129 94.10084 203.875 86.5 C 203.95056 84.669211 204.03483 83.084923 204.125 81.625 C 202.25228 79.259624 200.3755 76.593982 198.03125 73.59375 z "
           style="fill:#000000;stroke:none" />
        <path
           inkscape:connector-curvature="0"
           id="path4158"
           style="font-size:10px;font-style:normal;font-variant:normal;font-weight:normal;font-stretch:normal;line-height:125%;letter-spacing:0px;word-spacing:0px;fill:#000000;fill-opacity:1;stroke:none;font-family:GOST type B;-inkscape-font-specification:GOST type B"
           d="m 378.97117,266.79131 c 0.004,0.1064 0.0333,0.20347 0.0864,0.29129 0.0883,0.14567 0.22035,0.23753 0.3962,0.27559 0.17703,0.04 0.34438,0.0122 0.50204,-0.0833 0.0838,-0.0508 0.14942,-0.1226 0.19685,-0.21545 0.0474,-0.0928 0.0721,-0.1917 0.074,-0.29652 0.002,-0.0252 -0.005,-0.0478 -0.0165,-0.0678 -0.0169,-0.0279 -0.0421,-0.0447 -0.0756,-0.0503 -0.0335,-0.006 -0.0631,-4.5e-4 -0.0891,0.015 -0.038,0.023 -0.0562,0.0559 -0.0548,0.0986 -0.003,0.0673 -0.0188,0.12876 -0.0478,0.18449 -0.029,0.0557 -0.0715,0.10049 -0.12731,0.13441 -0.0977,0.0592 -0.20088,0.0781 -0.3094,0.0566 -0.10534,-0.0208 -0.18581,-0.0771 -0.24143,-0.16879 -0.0315,-0.0519 -0.0493,-0.11066 -0.0536,-0.17632 l 0.0251,-1.66031 c -10e-4,-0.0376 -0.009,-0.0684 -0.0232,-0.0923 -0.0327,-0.0539 -0.0859,-0.0585 -0.15971,-0.0137 l -0.81718,0.49522 c -0.032,0.0193 -0.0506,0.0449 -0.0558,0.0768 -0.005,0.0318 4.2e-4,0.0607 0.0157,0.0867 0.0181,0.0299 0.0414,0.0492 0.0699,0.058 0.0284,0.009 0.0596,0.003 0.0935,-0.0179 l 0.63459,-0.38457 z" />
        <path
           style="fill:#4d4d4d;stroke:none"
           d="m 350.01786,233.35575 4.7153,-0.48308 c 3.77307,5.0203 9.34531,3.89828 11.36632,-1.31204 l 28.77858,-3.51206 c 8.80842,-1.07496 11.64792,-3.42847 11.96163,-11.02931 0.81755,-19.80824 2.01208,-16.33003 13.92306,-23.74053 34.15852,-21.25198 59.56349,-41.10025 104.97114,-54.49851 0.13328,-3.35314 -7.06053,-6.30015 -11.66726,-5.3033 -59.52291,12.88013 -106.71785,48.41515 -160.86679,75.66043 -4.49027,2.2593 -6.02908,4.78651 -4.94975,11.66726 z"
           id="path3893"
           inkscape:connector-curvature="0"
           sodipodi:nodetypes="cccssscsssc" />
        <path
           sodipodi:type="arc"
           style="fill:#d7d700;fill-opacity:1;stroke:none"
           id="path3850"
           sodipodi:cx="373.21429"
           sodipodi:cy="256.29074"
           sodipodi:rx="19.642857"
           sodipodi:ry="19.642857"
           d="m 392.85715,256.29074 c 0,10.84845 -8.79441,19.64286 -19.64286,19.64286 -10.84845,0 -19.64285,-8.79441 -19.64285,-19.64286 0,-10.84845 8.7944,-19.64286 19.64285,-19.64286 10.84845,0 19.64286,8.79441 19.64286,19.64286 z" />
        <path
           sodipodi:type="arc"
           style="fill:#ececec;fill-opacity:1;stroke:none"
           id="path3895"
           sodipodi:cx="392.0907"
           sodipodi:cy="219.56717"
           sodipodi:rx="3.5355339"
           sodipodi:ry="3.5355339"
           d="m 395.62623,219.56717 c 0,1.95262 -1.58291,3.53553 -3.53553,3.53553 -1.95262,0 -3.53554,-1.58291 -3.53554,-3.53553 0,-1.95262 1.58292,-3.53553 3.53554,-3.53553 1.95262,0 3.53553,1.58291 3.53553,3.53553 z" />
        <path
           d="m 392.85715,256.29074 c 0,10.84845 -8.79441,19.64286 -19.64286,19.64286 -10.84845,0 -19.64285,-8.79441 -19.64285,-19.64286 0,-10.84845 8.7944,-19.64286 19.64285,-19.64286 10.84845,0 19.64286,8.79441 19.64286,19.64286 z"
           sodipodi:ry="19.642857"
           sodipodi:rx="19.642857"
           sodipodi:cy="256.29074"
           sodipodi:cx="373.21429"
           id="path3852"
           style="fill:url(#linearGradient5571);fill-opacity:1;stroke:none"
           sodipodi:type="arc"
           transform="matrix(0.9551167,0,0,0.9551167,16.751091,11.503175)" />
        <path
           style="fill:#ececec;stroke:none"
           d="m 412.24325,182.9744 c -20.7418,10.72445 -34.16531,14.42237 -57.98275,30.05204 -6.86036,4.50196 -0.65049,7.88152 4.24264,3.88908 18.6325,-15.20279 29.81633,-20.85965 53.74011,-33.94112 z"
           id="path3897"
           inkscape:connector-curvature="0"
           sodipodi:nodetypes="cssc" />
        <path
           transform="matrix(0.42730928,0,0,0.42730928,213.73637,146.77533)"
           sodipodi:type="arc"
           style="fill:#e6e6e6;stroke:none"
           id="path3856"
           sodipodi:cx="373.21429"
           sodipodi:cy="256.29074"
           sodipodi:rx="19.642857"
           sodipodi:ry="19.642857"
           d="m 392.85715,256.29074 c 0,10.84845 -8.79441,19.64286 -19.64286,19.64286 -10.84845,0 -19.64285,-8.79441 -19.64285,-19.64286 0,-10.84845 8.7944,-19.64286 19.64285,-19.64286 10.84845,0 19.64286,8.79441 19.64286,19.64286 z" />
        <path
           style="fill:#cccccc;stroke:none"
           d="m 373.21875,247.90625 c -4.63564,0 -8.40625,3.73936 -8.40625,8.375 0,2.48235 1.09958,4.71329 2.8125,6.25 -1.41765,-1.50296 -2.3125,-3.52088 -2.3125,-5.75 0,-4.63564 3.77061,-8.375 8.40625,-8.375 2.18945,0 4.1931,0.81436 5.6875,2.1875 -1.53416,-1.66964 -3.74131,-2.6875 -6.1875,-2.6875 z"
           id="path4188"
           inkscape:connector-curvature="0" />
        <path
           style="fill:#fede0a;fill-opacity:1;stroke:#000000;stroke-width:0.37657034;stroke-linecap:round;stroke-linejoin:miter;stroke-miterlimit:4;stroke-opacity:1;stroke-dasharray:none"
           d="m 368.1875,263 -3.84375,5.125 c 4.56853,3.41849 10.69932,3.90485 15.75,1.25 l -2.96875,-5.65625 c -1.16655,0.6143 -2.49624,0.96875 -3.90625,0.96875 -1.89106,0 -3.62785,-0.63228 -5.03125,-1.6875 z"
           id="path3858"
           inkscape:connector-curvature="0" />
        <path
           style="fill:#f35c59;fill-opacity:1;stroke:#000000;stroke-width:0.37657034;stroke-linecap:round;stroke-linejoin:miter;stroke-miterlimit:4;stroke-opacity:1;stroke-dasharray:none"
           d="m 381.5,257.65625 c -0.3666,2.22966 -1.61848,4.16712 -3.375,5.4375 l 3.71875,5.21875 c 3.17422,-2.28433 5.32984,-5.73556 5.96875,-9.59375 l -6.3125,-1.0625 z"
           id="path3068"
           inkscape:connector-curvature="0" />
        <path
           style="fill:#00e567;fill-opacity:1;stroke:#000000;stroke-width:0.37657034;stroke-linecap:round;stroke-linejoin:miter;stroke-miterlimit:4;stroke-opacity:1;stroke-dasharray:none"
           d="m 379.78125,261.5 c -1.02118,1.28405 -2.40196,2.2691 -4,2.78125 L 377.75,270.375 c 2.78317,-0.89859 5.24702,-2.61332 7.0625,-4.90625 L 379.78125,261.5 z"
           id="path3066"
           inkscape:connector-curvature="0" />
        <path
           style="fill:#000000;stroke:none"
           d="m 370.34019,248.41662 c -0.63118,0.23055 -1.22488,0.53039 -1.76201,0.88538 l 7.49163,14.88374 c 0.009,-0.004 0.0176,-0.006 0.0267,-0.01 0.009,-0.004 0.0176,-0.006 0.0267,-0.01 l -3.8651,-16.20836 c -0.64558,0.074 -1.28061,0.22597 -1.91785,0.45873 z"
           id="path3080"
           inkscape:connector-curvature="0" />
        <path
           inkscape:connector-curvature="0"
           id="path4152"
           style="font-size:10px;font-style:normal;font-variant:normal;font-weight:normal;font-stretch:normal;line-height:125%;letter-spacing:0px;word-spacing:0px;fill:#000000;fill-opacity:1;stroke:none;font-family:GOST type B;-inkscape-font-specification:GOST type B"
           d="m 384.21491,257.14665 1.34014,0.0302 c 0.14701,0.003 0.27297,-0.0453 0.37791,-0.14554 0.10494,-0.10037 0.15904,-0.22281 0.1623,-0.36739 l 0.003,-0.14352 c 0.003,-0.14459 -0.0464,-0.27057 -0.14896,-0.37794 -0.10037,-0.10497 -0.22284,-0.15909 -0.36749,-0.16235 l -1.34015,-0.0302 c -0.14693,-0.003 -0.27289,0.0452 -0.37786,0.14553 -0.10261,0.10044 -0.15559,0.22406 -0.1589,0.371 l -0.003,0.14352 c -0.003,0.14693 0.0441,0.27168 0.14208,0.37425 0.10037,0.10497 0.22398,0.15911 0.37092,0.16243 z m 0.005,-0.23792 c -0.0793,-0.002 -0.14631,-0.0313 -0.20105,-0.0886 -0.0547,-0.0572 -0.0812,-0.12552 -0.0794,-0.20483 l 0.003,-0.14352 c 0.002,-0.0793 0.0313,-0.14632 0.0885,-0.20105 0.0572,-0.0547 0.12552,-0.0812 0.20483,-0.0794 l 1.34015,0.0302 c 0.0793,0.002 0.14632,0.0313 0.20105,0.0885 0.0547,0.0572 0.0812,0.12552 0.0795,0.20483 l -0.003,0.14352 c -0.002,0.0793 -0.0313,0.14631 -0.0885,0.20104 -0.0572,0.0547 -0.12553,0.0812 -0.20484,0.0794 z"
           sodipodi:nodetypes="ccccccscccccccccccccccccccc" />
        <path
           inkscape:connector-curvature="0"
           id="path4154"
           style="font-size:10px;font-style:normal;font-variant:normal;font-weight:normal;font-stretch:normal;line-height:125%;letter-spacing:0px;word-spacing:0px;fill:#000000;fill-opacity:1;stroke:none;font-family:GOST type B;-inkscape-font-specification:GOST type B"
           d="m 383.85961,261.67262 c 0.0496,-0.0978 0.12292,-0.16007 0.2201,-0.18675 0.0847,-0.0225 0.17178,-0.0107 0.26125,0.0344 0.0874,0.0442 0.14708,0.1072 0.17905,0.18877 0.036,0.0941 0.0291,0.19011 -0.0204,0.28793 -0.0507,0.0999 -0.12451,0.16319 -0.22165,0.1898 -0.0847,0.0225 -0.17071,0.0116 -0.25811,-0.0327 -0.0895,-0.0453 -0.15023,-0.1088 -0.18218,-0.19037 -0.036,-0.0941 -0.0287,-0.19107 0.022,-0.29098 z m -0.21228,-0.10756 c -0.0686,0.1353 -0.16815,0.22086 -0.29878,0.25669 -0.11394,0.0286 -0.22919,0.0133 -0.34574,-0.0457 -0.11859,-0.0601 -0.19849,-0.14504 -0.23968,-0.25483 -0.0505,-0.1224 -0.0409,-0.25227 0.0287,-0.3896 0.0686,-0.13529 0.16709,-0.21879 0.29563,-0.2505 0.11493,-0.0307 0.23071,-0.016 0.34724,0.0425 0.11866,0.0601 0.19858,0.14507 0.23978,0.25487 0.0505,0.12239 0.0414,0.25124 -0.0271,0.38654 z m -0.0617,0.41598 c 0.0203,0.0836 0.0593,0.15895 0.11692,0.22603 0.0576,0.0671 0.12695,0.1212 0.20812,0.16233 0.14572,0.0738 0.29016,0.0908 0.43333,0.0509 0.16193,-0.0409 0.2856,-0.14563 0.37101,-0.31421 0.0854,-0.16864 0.0962,-0.32929 0.0324,-0.48195 -0.0525,-0.13906 -0.15157,-0.24551 -0.29728,-0.31933 -0.0812,-0.0411 -0.16559,-0.0643 -0.25321,-0.0695 -0.0876,-0.005 -0.17117,0.009 -0.25065,0.0418 -0.0101,-0.12532 -0.0506,-0.23697 -0.12265,-0.33491 -0.072,-0.0979 -0.16525,-0.17593 -0.27978,-0.23395 -0.17481,-0.0886 -0.34947,-0.11038 -0.524,-0.0654 -0.19122,0.0523 -0.33799,0.1793 -0.44031,0.38123 -0.10334,0.20397 -0.11847,0.39902 -0.0454,0.58517 0.0669,0.16732 0.18681,0.29473 0.35952,0.38224 0.11243,0.057 0.22995,0.0858 0.35255,0.0864 0.12262,10e-4 0.23574,-0.0316 0.33943,-0.0969 z" />
        <path
           inkscape:connector-curvature="0"
           id="path4156"
           style="font-size:10px;font-style:normal;font-variant:normal;font-weight:normal;font-stretch:normal;line-height:125%;letter-spacing:0px;word-spacing:0px;fill:#000000;fill-opacity:1;stroke:none;font-family:GOST type B;-inkscape-font-specification:GOST type B"
           d="m 379.616,264.76161 1.3562,1.67148 c 0.028,0.0345 0.0566,0.0548 0.0858,0.0612 0.0292,0.006 0.0547,9.2e-4 0.0764,-0.0169 0.0271,-0.0221 0.0433,-0.0576 0.0485,-0.10688 l 0.0696,-0.66956 c 0.004,-0.0361 -0.004,-0.066 -0.023,-0.0894 -0.0206,-0.0254 -0.0481,-0.0399 -0.0826,-0.0434 -0.0345,-0.004 -0.0643,0.005 -0.0897,0.0255 -0.0217,0.0177 -0.0345,0.0445 -0.0382,0.0807 l -0.0427,0.38609 -1.17536,-1.44861 c -0.0235,-0.029 -0.0515,-0.0439 -0.0837,-0.0448 -0.0323,-10e-4 -0.0602,0.008 -0.0838,0.0274 -0.0271,0.0221 -0.0431,0.0477 -0.0478,0.0771 -0.004,0.0294 0.005,0.0595 0.0304,0.0902 z" />
        <path
           inkscape:connector-curvature="0"
           id="path4160"
           style="font-size:10px;font-style:normal;font-variant:normal;font-weight:normal;font-stretch:normal;line-height:125%;letter-spacing:0px;word-spacing:0px;fill:#000000;fill-opacity:1;stroke:none;font-family:GOST type B;-inkscape-font-specification:GOST type B"
           d="m 375.46958,266.6671 0.52574,2.08725 c 0.0104,0.043 0.0282,0.0736 0.052,0.0916 0.0238,0.018 0.0494,0.0236 0.0764,0.0168 0.0339,-0.008 0.0636,-0.0341 0.089,-0.0765 l 0.34526,-0.57789 c 0.0186,-0.0312 0.0243,-0.0615 0.0169,-0.0908 -0.008,-0.0317 -0.0268,-0.0564 -0.0565,-0.0742 -0.0297,-0.0178 -0.0605,-0.0227 -0.0922,-0.0147 -0.0272,0.007 -0.05,0.0259 -0.0687,0.0571 l -0.20141,0.33216 -0.45564,-1.80896 c -0.009,-0.0362 -0.0281,-0.0615 -0.0571,-0.0758 -0.0289,-0.0144 -0.0581,-0.0178 -0.0875,-0.01 -0.0339,0.008 -0.0592,0.0251 -0.0759,0.0498 -0.0167,0.0247 -0.0201,0.0563 -0.0102,0.0947 z"
           inkscape:transform-center-x="-2.8068114"
           inkscape:transform-center-y="11.401568" />
        <path
           inkscape:connector-curvature="0"
           id="path4162"
           style="font-size:10px;font-style:normal;font-variant:normal;font-weight:normal;font-stretch:normal;line-height:125%;letter-spacing:0px;word-spacing:0px;fill:#000000;fill-opacity:1;stroke:none;font-family:GOST type B;-inkscape-font-specification:GOST type B"
           d="m 374.85885,267.86953 -0.46968,0.0518 c -0.0673,0.007 -0.12661,-0.01 -0.17814,-0.0508 -0.0516,-0.0413 -0.0809,-0.0956 -0.0884,-0.16277 l -0.0523,-0.47319 c -0.007,-0.0673 0.01,-0.1266 0.0508,-0.17812 0.0413,-0.0515 0.0956,-0.0809 0.16276,-0.0884 l 0.23665,-0.0261 c 0.0673,-0.007 0.12545,0.01 0.17463,0.0512 0.0492,0.0415 0.0774,0.096 0.0849,0.16315 z m -0.0156,0.24113 c -0.0107,0.074 -0.0244,0.14004 -0.0415,0.19823 -0.081,0.26486 -0.23892,0.46188 -0.47355,0.59109 -0.0462,0.0285 -0.0664,0.0672 -0.0611,0.11582 0.003,0.0325 0.0178,0.0596 0.0425,0.0816 0.0247,0.0219 0.0534,0.031 0.0859,0.0276 0.0162,-0.002 0.032,-0.007 0.0475,-0.0158 0.14157,-0.079 0.26342,-0.18229 0.36554,-0.30977 0.10213,-0.12747 0.17642,-0.26771 0.22286,-0.42069 0.0639,-0.20894 0.0832,-0.42704 0.0582,-0.6543 l -0.0657,-0.59495 c -0.0149,-0.13449 -0.0738,-0.243 -0.17682,-0.32554 -0.10277,-0.0802 -0.22024,-0.11301 -0.35238,-0.0984 l -0.23664,0.0261 c -0.13448,0.0148 -0.24195,0.0724 -0.32242,0.17293 -0.0825,0.10302 -0.11638,0.22179 -0.10152,0.35627 l 0.0523,0.47319 c 0.0148,0.13447 0.0738,0.24298 0.17681,0.32553 0.10047,0.0805 0.21791,0.11327 0.35239,0.0984 z"
           sodipodi:nodetypes="ccccccccccccccccccccccccccccscc"
           inkscape:transform-center-x="-1.2511481"
           inkscape:transform-center-y="11.62319" />
        <path
           inkscape:connector-curvature="0"
           id="path4164"
           style="font-size:10px;font-style:normal;font-variant:normal;font-weight:normal;font-stretch:normal;line-height:125%;letter-spacing:0px;word-spacing:0px;fill:#000000;fill-opacity:1;stroke:none;font-family:GOST type B;-inkscape-font-specification:GOST type B"
           d="m 370.77237,268.01445 c -0.0657,0.0838 -0.10684,0.17635 -0.1234,0.27768 -0.0275,0.16811 0.0132,0.32373 0.12228,0.46687 0.10864,0.14538 0.25394,0.23294 0.43588,0.26267 0.0966,0.0158 0.19323,0.004 0.2896,-0.036 0.0964,-0.0398 0.17933,-0.099 0.24886,-0.17743 0.0172,-0.0185 0.0277,-0.0392 0.0314,-0.0623 0.005,-0.0322 -0.003,-0.0613 -0.0248,-0.0874 -0.0218,-0.026 -0.0476,-0.0415 -0.0775,-0.0464 -0.0438,-0.008 -0.0791,0.006 -0.10579,0.0394 -0.0459,0.0493 -0.0979,0.0858 -0.15612,0.1093 -0.0582,0.0235 -0.11958,0.0301 -0.1841,0.0194 -0.1128,-0.0185 -0.20348,-0.0711 -0.27205,-0.15787 -0.0666,-0.0842 -0.0912,-0.17925 -0.074,-0.28515 0.01,-0.0598 0.0343,-0.11618 0.0737,-0.16892 l 1.09727,-1.24628 c 0.0237,-0.0293 0.0378,-0.0577 0.0423,-0.0853 0.0102,-0.0622 -0.0274,-0.10025 -0.11252,-0.11417 l -0.94303,-0.15407 c -0.0368,-0.006 -0.0675,0.002 -0.0923,0.0221 -0.0247,0.0208 -0.0395,0.0462 -0.0444,0.0761 -0.006,0.0346 -3.8e-4,0.0644 0.0156,0.0895 0.016,0.025 0.0436,0.0408 0.0827,0.0471 l 0.73231,0.11966 z"
           inkscape:transform-center-x="1.8452061"
           inkscape:transform-center-y="11.506742" />
        <path
           inkscape:connector-curvature="0"
           id="path4166"
           style="font-size:10px;font-style:normal;font-variant:normal;font-weight:normal;font-stretch:normal;line-height:125%;letter-spacing:0px;word-spacing:0px;fill:#000000;fill-opacity:1;stroke:none;font-family:GOST type B;-inkscape-font-specification:GOST type B"
           d="m 369.20104,266.76587 -0.11827,0.34065 c -0.0122,0.0352 -0.0103,0.0668 0.006,0.0947 0.0163,0.0279 0.0387,0.0468 0.0674,0.0568 0.0331,0.0115 0.0638,0.0104 0.092,-0.003 0.0282,-0.0137 0.048,-0.0371 0.0595,-0.0701 l 0.11828,-0.34065 0.52903,0.18368 -0.90938,1.29603 c -0.006,0.0104 -0.011,0.0208 -0.0147,0.0318 -0.0115,0.0331 -0.009,0.0641 0.006,0.0931 0.0159,0.029 0.0393,0.0488 0.0702,0.0595 0.0221,0.008 0.0455,0.008 0.0703,4e-5 0.0248,-0.007 0.0462,-0.0228 0.0642,-0.0462 l 0.99953,-1.42766 c 0.004,-0.003 0.008,-0.0105 0.0146,-0.0208 0.006,-0.0104 0.0103,-0.0187 0.0125,-0.0252 0.0214,-0.0618 -0.008,-0.10639 -0.0869,-0.13397 l -0.67787,-0.23537 0.11824,-0.34053 c 0.0122,-0.0353 0.0108,-0.0666 -0.004,-0.0941 -0.0152,-0.0275 -0.0382,-0.0466 -0.069,-0.0573 -0.033,-0.0115 -0.0632,-0.0115 -0.0907,1.1e-4 -0.0275,0.0116 -0.0476,0.0359 -0.0607,0.0734 l -0.11824,0.34054 -0.22481,-0.0781 c -0.0375,-0.013 -0.0694,-0.0117 -0.0959,0.003 -0.0264,0.0155 -0.045,0.0388 -0.0557,0.0695 -0.0114,0.0331 -0.0115,0.0634 1.1e-4,0.0907 0.0116,0.0274 0.0359,0.0476 0.0734,0.0607 z" />
        <path
           style="fill:#efc302;fill-opacity:1;stroke:none"
           d="m 305.52791,529.78461 c 0,0 12.5641,7.13346 78.04353,7.13346 65.47947,0 78.04357,-7.13346 78.04357,-7.13346 l 0,19.63782 c 0,0 -20.59086,7.33896 -78.04357,7.33896 -57.45267,0 -78.04353,-7.33896 -78.04353,-7.33896 z"
           id="path4251"
           inkscape:connector-curvature="0"
           sodipodi:nodetypes="czcczcc" />
        <path
           sodipodi:nodetypes="czcczcc"
           inkscape:connector-curvature="0"
           id="path4253"
           d="m 305.46025,461.12759 c 0,0 25.30284,7.73799 78.11119,7.73799 52.80835,0 78.11117,-7.73799 78.11117,-7.73799 l 0,7.3922 c 0,0 -19.548,7.69908 -78.11117,7.69908 -58.56317,0 -78.11119,-7.69908 -78.11119,-7.69908 z"
           style="fill:#1f82ba;fill-opacity:1;stroke:none" />
        <path
           inkscape:connector-curvature="0"
           style="fill:#efc302;fill-opacity:1;stroke:none"
           d="m 305.59336,475.40565 0,52.25 c 0,0 18.67028,6.42814 69.84375,7.0625 l 0,-54.40625 c -58.24941,-0.39365 -69.84375,-4.90625 -69.84375,-4.90625 z m 155.96875,0 c 0,0 -11.6209,4.51122 -69.84375,4.90625 l 0,54.40625 c 51.16861,-0.63482 69.84375,-7.0625 69.84375,-7.0625 l 0,-52.25 z"
           id="path4255" />
        <path
           style="fill:#e30000;fill-opacity:1;stroke:none"
           d="m 300.21836,687.15673 0,10.1311 c 12.07338,3.02897 37.56412,11.91316 83.34375,11.91316 45.73496,0 71.2558,-8.84638 83.3437,-11.87522 l 0,-10.1311 c -13.0511,3.03696 -40.56079,12.25466 -83.3437,12.25466 -42.81861,0 -70.30587,-9.25612 -83.34375,-12.2926 z"
           id="path5445"
           inkscape:connector-curvature="0"
           sodipodi:nodetypes="ccsccsc" />
        <g
           id="1"
           transform="matrix(0.3944113,0,0,0.54141913,305.52952,427.7187)"
           style="fill:#e30000;fill-opacity:1">
          <path
             d="M -0.58689526,11.130773 C 1.205536,7.1467727 3.9653704,7.4623557 7.2826436,8.3923628 c 2.2098535,0.6195388 4.2646114,2.1962192 5.7923724,4.8971022 1.537135,2.747611 2.408803,5.999886 2.408803,10.111956 0,4.074689 -0.862295,6.990521 -2.39943,9.055902 -1.49027,2.027998 -3.5710258,2.6635 -5.7642543,2.018653 C 3.8428364,33.429267 0.65472019,30.97957 -0.09951113,27.831388 -1.8958019,20.333621 -1.0848037,12.237464 -0.58689526,11.130773 z m 2.26462136,7.943628 c 0,2.859759 0.3936564,5.242891 1.2184603,7.186779 0.8810406,2.009307 2.5306484,3.299002 4.4145755,3.859739 1.1715965,0.345788 2.1932286,-0.130839 3.0461511,-1.383151 0.862295,-1.261658 1.330933,-3.336385 1.330933,-6.252217 0,-2.897141 -0.459266,-5.140089 -1.293442,-6.775571 C 9.5602271,14.083843 8.5184589,13.1166 7.3107619,12.756765 5.3504472,12.172687 3.6897062,12.128241 2.8586954,13.242737 2.0869553,14.277743 1.6777261,16.177261 1.6777261,19.074401 z"
             style="fill:#e30000;fill-opacity:1;fill-rule:evenodd;stroke:none"
             id="2"
             inkscape:connector-curvature="0"
             sodipodi:nodetypes="sscsccssscccscsss" />
          <path
             d="m 18.276905,11.280158 c 4.105274,0.710267 7.957483,1.271004 11.969029,1.794358 0,1.401843 0,2.822376 0,4.224218 -2.849322,-0.364479 -5.567426,-0.747649 -8.313648,-1.186893 0,6.999866 0,13.990387 0,20.990253 -1.246579,-0.205604 -2.465039,-0.401862 -3.655381,-0.616811 0,-8.401708 0,-16.803417 0,-25.205125"
             style="fill:#e30000;fill-opacity:1;fill-rule:evenodd;stroke:none"
             id="3"
             inkscape:connector-curvature="0" />
          <path
             d="m 32.064252,38.513282 c 0,-8.401709 0,-16.803417 0,-25.205125 1.134105,0.130838 2.286956,0.280368 3.44918,0.411207 0,3.308348 0,6.616695 0,9.925043 2.33382,0.271023 4.639522,0.523355 6.879614,0.756995 0,-3.317693 0,-6.616696 0,-9.925043 1.162224,0.112147 2.343193,0.23364 3.533535,0.345787 0,8.411054 0,16.812763 0,25.223817 -1.190342,-0.112148 -2.371311,-0.233641 -3.533535,-0.355134 0,-3.682172 0,-7.354999 0,-11.027826 -2.240092,-0.23364 -4.545794,-0.485972 -6.879614,-0.747649 0,3.672827 0,7.345654 0,11.01848 -1.162224,-0.140184 -2.315075,-0.271022 -3.44918,-0.420552"
             style="fill:#e30000;fill-opacity:1;fill-rule:evenodd;stroke:none"
             id="4"
             inkscape:connector-curvature="0" />
          <path
             d="m 49.525726,40.382405 c 0,-8.401709 0,-16.803417 0,-25.214471 4.302102,0.392516 8.576086,0.747649 12.887561,1.084091 0,1.420534 0,2.841068 0,4.261601 -3.149252,-0.242986 -6.232894,-0.495317 -9.382145,-0.76634 0,1.869123 0,3.7289 0,5.588678 2.933678,0.252331 5.801746,0.495317 8.716678,0.710267 0,1.420533 0,2.841067 0,4.252255 -2.914932,-0.224295 -5.783,-0.457935 -8.716678,-0.710267 0,2.28033 0,4.570006 0,6.859682 3.261725,0.280368 6.448467,0.542045 9.728937,0.794377 0,1.420534 0,2.831722 0,4.242909 -4.442694,-0.336442 -8.819778,-0.700921 -13.234353,-1.102782"
             style="fill:#e30000;fill-opacity:1;fill-rule:evenodd;stroke:none"
             id="5"
             inkscape:connector-curvature="0" />
          <path
             d="m 69.602202,41.989851 c 0,-6.990521 0,-13.971696 0,-20.95287 -1.72459,-0.121493 -3.439807,-0.242986 -5.136278,-0.364479 0,-1.42988 0,-2.850413 0,-4.270947 4.573912,0.336442 9.175943,0.644848 13.787347,0.934562 0,1.420533 0,2.841067 0,4.261601 -1.733963,-0.102802 -3.44918,-0.21495 -5.145652,-0.327097 0,6.99052 0,13.96235 0,20.95287 -1.152851,-0.08411 -2.315075,-0.158875 -3.505417,-0.23364"
             style="fill:#e30000;fill-opacity:1;fill-rule:evenodd;stroke:none"
             id="6"
             inkscape:connector-curvature="0" />
          <path
             d="m 78.750028,17.364154 c 1.312188,0.07476 2.596257,0.158875 3.899073,0.23364 1.32156,4.448513 2.736849,8.868989 4.067783,13.317502 1.134105,-4.308328 2.305701,-8.597966 3.439807,-12.906295 1.209087,0.06542 2.427548,0.130839 3.655381,0.196258 -1.921419,6.289599 -3.917819,12.560507 -5.839237,18.850107 -0.627976,2.04669 -1.302815,3.570025 -1.968282,4.616734 -0.656094,1.056054 -1.518389,1.551372 -2.577512,1.495298 -1.031005,-0.05607 -1.837064,-0.205603 -2.418175,-0.439244 0,-1.252312 0,-2.523316 0,-3.775628 0.496756,0.07476 0.94665,0.121493 1.340306,0.140184 0.815431,0.04673 1.396543,-0.140184 1.752708,-0.551391 0.33742,-0.411207 0.693585,-1.299041 1.01226,-2.710229 -2.099501,-6.168106 -4.264612,-12.29883 -6.364112,-18.466936"
             style="fill:#e30000;fill-opacity:1;fill-rule:evenodd;stroke:none"
             id="7"
             inkscape:connector-curvature="0" />
          <path
             d="m 95.658508,18.28937 c 1.152851,0.05607 2.315074,0.112147 3.477298,0.168221 0,6.999866 0,13.990386 0,20.980907 1.677724,0.07476 3.355454,0.158875 5.042554,0.224294 0,-6.99052 0,-13.98104 0,-20.980906 1.15285,0.04673 2.3057,0.102801 3.46792,0.149529 0,6.990521 0,13.990387 0,20.980907 1.73397,0.07476 3.4773,0.140185 5.20189,0.214949 0,-6.999866 0,-13.999732 0,-20.990252 1.15285,0.04673 2.31508,0.08411 3.4773,0.130839 0.009,8.411054 0.0187,16.822108 0.0281,25.233162 -6.89836,-0.252332 -13.79672,-0.551392 -20.695082,-0.89718 0,-8.401708 0,-16.812762 0,-25.21447"
             style="fill:#e30000;fill-opacity:1;fill-rule:evenodd;stroke:none"
             id="8"
             inkscape:connector-curvature="0" />
          <path
             d="m 120.00897,19.298696 c 1.07787,0.03738 2.17448,0.07476 3.26172,0.112148 0,5.598023 0,11.186701 0,16.784725 2.31508,-5.532604 4.73325,-11.037172 7.03895,-16.569776 1.16223,0.03738 2.33382,0.06542 3.49605,0.102801 0,8.401709 0,16.803417 0,25.214471 -1.09662,-0.03738 -2.19323,-0.06542 -3.28047,-0.09346 0,-5.485876 0,-10.971753 0,-16.457629 -2.3057,5.420457 -4.72388,10.812877 -7.02958,16.233334 -1.16222,-0.02804 -2.32445,-0.07477 -3.48667,-0.112147 0,-8.401708 0,-16.812762 0,-25.214471"
             style="fill:#e30000;fill-opacity:1;fill-rule:evenodd;stroke:none"
             id="9"
             inkscape:connector-curvature="0" />
          <path
             d="m 141.29453,45.129978 c 0,-6.981175 0,-13.96235 0,-20.943525 -1.71521,-0.04673 -3.43043,-0.08411 -5.13628,-0.130839 0,-1.420533 0,-2.841067 0,-4.270946 4.58329,0.121493 9.18532,0.233641 13.78735,0.317751 0,1.429879 0,2.850413 0,4.261601 -1.71522,-0.02804 -3.42106,-0.06542 -5.13628,-0.102802 0,6.981175 0,13.971695 0,20.95287 -1.16222,-0.02804 -2.33382,-0.05607 -3.51479,-0.08411"
             style="fill:#e30000;fill-opacity:1;fill-rule:evenodd;stroke:none"
             id="10"
             inkscape:connector-curvature="0" />
          <path
             d="m 152.22318,45.363618 c 0,-8.401708 0,-16.812762 0,-25.214471 4.28336,0.08411 8.58546,0.14953 12.86882,0.205604 0,1.420533 0,2.841067 0,4.2616 -3.12113,-0.03738 -6.24227,-0.08411 -9.37277,-0.140184 0,1.869123 0,3.728901 0,5.598024 2.91493,0.04673 5.82049,0.08411 8.72605,0.130839 0,1.411187 0,2.831721 0,4.242909 -2.90556,-0.03738 -5.81112,-0.08411 -8.72605,-0.130839 0,2.280331 0,4.570006 0,6.859682 3.24298,0.05607 6.47658,0.102802 9.71019,0.14953 0,1.411188 0,2.831722 0,4.242909 -4.39583,-0.05607 -8.81041,-0.121493 -13.20624,-0.205603"
             style="fill:#e30000;fill-opacity:1;fill-rule:evenodd;stroke:none"
             id="11"
             inkscape:connector-curvature="0" />
          <path
             d="m 169.65654,20.410824 c 4.04904,0.04673 8.11682,0.07476 12.17523,0.102802 0,8.401709 0,16.812763 0,25.214471 -1.1716,-0.0093 -2.34319,-0.0093 -3.51479,-0.02804 0,-6.981175 0,-13.96235 0,-20.943524 -1.73396,-0.01869 -3.48667,-0.02804 -5.23001,-0.04673 0,3.588716 0,7.177432 0,10.766149 0,3.084053 -0.075,5.224199 -0.2062,6.448474 -0.14996,1.21493 -0.49675,2.177529 -1.04037,2.841068 -0.553,0.691575 -1.40592,1.018672 -2.57752,1.009326 -0.4124,-0.0093 -1.15285,-0.05607 -2.24009,-0.196258 0,-1.317732 0,-2.635463 0,-3.94385 0.26244,0.0093 0.52488,0.01869 0.78731,0.02804 0.74045,0.0093 1.23721,-0.121493 1.4809,-0.411207 0.24369,-0.289714 0.37491,-0.990635 0.37491,-2.112109 0,-1.44857 -0.009,-2.887795 -0.009,-4.336366 0,-4.7943 0,-9.597947 0,-14.392248"
             style="fill:#e30000;fill-opacity:1;fill-rule:evenodd;stroke:none"
             id="12"
             inkscape:connector-curvature="0" />
          <path
             d="m 185.52464,20.532317 c 1.16223,0 2.33382,0.0093 3.50542,0.0093 0,3.364422 0,6.719498 0,10.083919 1.56525,0 3.13988,0.0093 4.68638,0.0093 0.98415,0 1.85581,0.14953 2.60564,0.467281 0.89041,0.373824 1.60274,0.962598 2.13699,1.785012 0.97477,1.495299 1.46215,3.299002 1.46215,5.39242 0,1.728939 -0.29056,3.186855 -0.88104,4.39244 -0.59986,1.205584 -1.26532,2.009307 -2.02452,2.448551 -0.21557,0.112147 -0.44052,0.214949 -0.69358,0.29906 -0.009,0 -0.009,0 -0.009,0 -0.68421,0.23364 -1.55588,0.345787 -2.59626,0.345787 -2.72747,0 -5.46432,-0.0093 -8.1918,-0.01869 0,-8.401708 0,-16.812762 0,-25.214471 z m 3.50542,20.999599 c 1.1341,0 2.27758,0 3.42106,0 1.08724,0.0093 1.84644,-0.08411 2.26821,-0.233641 0.4124,-0.158875 0.79669,-0.495317 1.13411,-1.046709 0.25306,-0.420552 0.40303,-0.91587 0.46864,-1.485953 0.0187,-0.168221 0.0187,-0.355133 0.0187,-0.551391 0,-0.196258 0,-0.401861 -0.0187,-0.588774 0,0 -0.009,0 -0.009,-0.0093 -0.0844,-0.850451 -0.34679,-1.504644 -0.81543,-1.943888 -0.56236,-0.5327 -1.52776,-0.803723 -2.89618,-0.813069 -1.19035,0 -2.38069,0 -3.57103,-0.0093 0,2.224257 0,4.448513 0,6.682116 z"
             style="fill:#e30000;fill-opacity:1;fill-rule:evenodd;stroke:none"
             id="13"
             inkscape:connector-curvature="0" />
          <path
             d="m 209.62204,20.522972 c 4.63015,-0.02804 9.24155,-0.06542 13.86233,-0.121493 0,8.401708 0,16.812762 0,25.214471 -1.16223,0.01869 -2.3432,0.02804 -3.51479,0.03738 0,-6.99052 0,-13.990386 0,-20.980907 -2.27759,0.01869 -4.55517,0.03738 -6.82338,0.05607 0,6.99052 0,13.990386 0,20.980907 -1.1716,0.0093 -2.35257,0.01869 -3.52416,0.01869 0,-8.401708 0,-16.803417 0,-25.205125"
             style="fill:#e30000;fill-opacity:1;fill-rule:evenodd;stroke:none"
             id="14"
             inkscape:connector-curvature="0" />
          <path
             d="m 226.37118,33.130207 c 0,-2.560698 0.26244,-4.728881 0.78731,-6.476511 0.38429,-1.299041 0.95603,-2.448552 1.64024,-3.476569 0.66547,-1.037364 1.42466,-1.785013 2.24009,-2.308367 1.0685,-0.691576 2.33382,-1.028018 3.75848,-1.056055 2.56814,-0.03738 4.63953,1.0654 6.15791,3.355076 1.51839,2.289676 2.32445,5.457839 2.32445,9.56991 0,4.074689 -0.79668,7.252198 -2.3057,9.588602 -1.50902,2.345749 -3.57103,3.523297 -6.12979,3.570025 -2.60563,0.03738 -4.66764,-1.074746 -6.17666,-3.355076 -1.51839,-2.28033 -2.29633,-5.401766 -2.29633,-9.411035 z m 3.61789,-0.224295 c 0,2.859759 0.46864,5.00925 1.36843,6.467166 0.89978,1.476608 2.06201,2.186874 3.47729,2.168183 1.40592,-0.02804 2.56814,-0.775686 3.45856,-2.261639 0.87166,-1.485953 1.3403,-3.672827 1.3403,-6.598004 0,-2.887796 -0.44989,-5.018596 -1.30281,-6.439129 -0.8623,-1.420534 -2.04327,-2.102764 -3.49605,-2.074727 -1.46215,0.01869 -2.63374,0.756995 -3.51479,2.205565 -0.87166,1.467262 -1.33093,3.635445 -1.33093,6.532585 z"
             style="fill:#e30000;fill-opacity:1;fill-rule:evenodd;stroke:none"
             id="15"
             inkscape:connector-curvature="0" />
          <path
             d="m 246.02588,45.251471 c 0,-8.401709 0,-16.812763 0,-25.214471 1.87456,-0.03738 3.75849,-0.08411 5.65179,-0.130839 2.13699,-0.04673 3.52416,0.02804 4.17088,0.271023 0.99351,0.364479 1.84643,1.158856 2.5119,2.401823 0.66547,1.261658 1.02163,2.87845 1.02163,4.887757 0,1.551372 -0.2062,2.859759 -0.59048,3.925159 -0.38428,1.056054 -0.89041,1.887814 -1.4809,2.51397 -0.59986,0.626157 -1.20909,1.046709 -1.82769,1.252313 -0.83418,0.261677 -2.04326,0.411207 -3.63664,0.448589 -0.77794,0.01869 -1.53713,0.03738 -2.31507,0.05607 0,3.168164 0,6.345673 0,9.504491 -1.1716,0.03738 -2.33382,0.05607 -3.50542,0.08411 z m 3.50542,-21.027635 c 0,2.383132 0,4.775609 0,7.158741 0.64672,-0.01869 1.29344,-0.02804 1.94016,-0.04673 1.39655,-0.03738 2.32445,-0.196258 2.78372,-0.467281 0.45926,-0.271023 0.83417,-0.68223 1.09661,-1.261658 0.26244,-0.579428 0.39366,-1.233621 0.39366,-1.971925 0,-0.906524 -0.18746,-1.663519 -0.553,-2.261639 -0.36553,-0.598119 -0.84355,-0.934561 -1.40591,-1.074746 -0.42178,-0.112147 -1.26533,-0.149529 -2.54002,-0.112147 -0.57174,0.01869 -1.14348,0.02804 -1.71522,0.03738 z"
             style="fill:#e30000;fill-opacity:1;fill-rule:evenodd;stroke:none"
             id="16"
             inkscape:connector-curvature="0" />
          <path
             d="m 261.55657,32.410595 c 0,-2.560699 0.27181,-4.728882 0.79668,-6.495203 0.38429,-1.299041 0.94665,-2.457897 1.62149,-3.49526 0.66547,-1.046709 1.42466,-1.81305 2.24947,-2.336404 1.07787,-0.728958 2.35256,-1.074746 3.76785,-1.121474 2.55877,-0.08411 4.63952,0.971944 6.16728,3.242929 1.51839,2.261639 2.31508,5.411111 2.31508,9.523182 0,4.084034 -0.78731,7.270889 -2.3057,9.635329 -1.50902,2.373787 -3.5804,3.579371 -6.1298,3.663482 -2.59625,0.09346 -4.68638,-0.990635 -6.1954,-3.242929 -1.50901,-2.252293 -2.28695,-5.364383 -2.28695,-9.373652 z m 3.60851,-0.280369 c 0,2.850413 0.47801,4.999905 1.38717,6.448475 0.89042,1.457916 2.07139,2.149492 3.4773,2.102764 1.39654,-0.04673 2.5494,-0.822415 3.43981,-2.317713 0.88104,-1.504644 1.34968,-3.691518 1.34968,-6.616696 0,-2.897141 -0.45927,-5.018595 -1.31219,-6.420438 -0.87167,-1.401842 -2.03389,-2.065381 -3.4773,-2.018653 -1.45278,0.04673 -2.63375,0.794378 -3.51479,2.261639 -0.88104,1.485953 -1.34968,3.654136 -1.34968,6.560622 z"
             style="fill:#e30000;fill-opacity:1;fill-rule:evenodd;stroke:none"
             id="17"
             inkscape:connector-curvature="0" />
          <path
             d="m 281.24876,18.980945 c 1.19034,-0.04673 2.37131,-0.09346 3.55228,-0.140184 0,6.99052 0,13.981041 0,20.980907 1.67773,-0.07476 3.34608,-0.140184 5.01443,-0.214949 0,-6.999866 0,-13.990387 0,-20.980907 1.18097,-0.05607 2.36194,-0.112148 3.53354,-0.158876 0,6.990521 0,13.990387 0,20.980907 1.72459,-0.07476 3.44918,-0.158875 5.19251,-0.252331 0,-6.990521 0,-13.990387 0,-20.980907 1.18097,-0.06542 2.35257,-0.121493 3.52417,-0.177567 0,8.411054 0.009,16.812762 0.0187,25.223816 -6.93585,0.364479 -13.88107,0.672885 -20.83567,0.934562 0,-8.401708 0,-16.812762 0,-25.214471"
             style="fill:#e30000;fill-opacity:1;fill-rule:evenodd;stroke:none"
             id="18"
             inkscape:connector-curvature="0" />
          <path
             d="m 305.72107,17.850126 c 1.18097,-0.07476 2.36193,-0.130839 3.5429,-0.205604 0,3.570025 0,7.158742 0,10.728767 0.78732,-0.168221 1.33094,-0.485972 1.59338,-0.971944 0.26243,-0.467281 0.71233,-1.81305 1.27469,-3.999924 0.71233,-2.766302 1.44341,-4.485895 2.17449,-5.214853 0.73107,-0.728958 1.93079,-1.121474 3.56165,-1.21493 0.0937,-0.01869 0.26244,-0.01869 0.50613,-0.05607 0,1.252313 0,2.504625 0,3.756938 -0.16871,0.01869 -0.31868,0.01869 -0.48739,0.01869 -0.73107,0.05607 -1.25595,0.205603 -1.59337,0.485972 -0.33742,0.280368 -0.6186,0.691575 -0.80606,1.233621 -0.2062,0.542046 -0.54362,1.644828 -0.93727,3.308348 -0.2062,0.897179 -0.4499,1.626137 -0.69359,2.224257 -0.24369,0.598119 -0.69358,1.177547 -1.31219,1.738284 0.76857,0.280369 1.42467,0.859797 1.9308,1.831741 0.50612,0.953252 1.10598,2.28033 1.70584,4.018614 0.76857,2.261639 1.59337,4.504587 2.38068,6.766226 -1.38717,0.07476 -2.77434,0.168221 -4.16151,0.261677 -0.67484,-2.149491 -1.38717,-4.2616 -2.06201,-6.411092 -0.0375,-0.07476 -0.0937,-0.261677 -0.2062,-0.504663 -0.0375,-0.09346 -0.18745,-0.467281 -0.43115,-1.158857 -0.44989,-1.21493 -0.8248,-1.962579 -1.10598,-2.261639 -0.29993,-0.299059 -0.73108,-0.429898 -1.33094,-0.411207 0,3.682173 0,7.364345 0,11.046518 -1.18097,0.07476 -2.36193,0.130839 -3.5429,0.205604 0,-8.411054 0,-16.822108 0,-25.214471"
             style="fill:#e30000;fill-opacity:1;fill-rule:evenodd;stroke:none"
             id="19"
             inkscape:connector-curvature="0" />
          <path
             d="m 319.81772,29.75644 c 0,-2.560699 0.26243,-4.747573 0.78731,-6.52324 0.37491,-1.327077 0.93728,-2.504625 1.61211,-3.570025 0.67484,-1.0654 1.46216,-1.850432 2.26822,-2.42986 1.08724,-0.747649 2.34319,-1.158856 3.7491,-1.252312 2.5494,-0.205604 4.6489,0.76634 6.16729,2.971905 1.49964,2.186874 2.26821,5.30831 2.26821,9.420381 0,4.074688 -0.74982,7.326962 -2.24947,9.738131 -1.51839,2.448552 -3.59914,3.738247 -6.14853,3.925159 -2.56814,0.205603 -4.66765,-0.785032 -6.18603,-2.990597 -1.49965,-2.186874 -2.26821,-5.289619 -2.26821,-9.289542 z m 3.61788,-0.429898 c 0,2.859758 0.46864,4.990558 1.38718,6.392401 0.89978,1.420533 2.062,2.074726 3.44918,1.98127 1.36842,-0.112147 2.54939,-0.91587 3.44918,-2.467242 0.88104,-1.551373 1.34967,-3.756938 1.34967,-6.67277 0,-2.897141 -0.46863,-4.990559 -1.31218,-6.37371 -0.8623,-1.383151 -2.08076,-1.962579 -3.48667,-1.869123 -1.44341,0.112148 -2.62438,0.897179 -3.48668,2.411169 -0.88104,1.51399 -1.34968,3.700864 -1.34968,6.598005 z"
             style="fill:#e30000;fill-opacity:1;fill-rule:evenodd;stroke:none"
             id="20"
             inkscape:connector-curvature="0" />
          <path
             d="m 339.42555,15.495031 c 2.3432,-0.186913 4.6489,-0.411207 6.91711,-0.616811 1.40591,-0.14953 2.45567,-0.168221 3.1305,-0.07477 0.67484,0.112147 1.2747,0.373825 1.79958,0.859797 0.52487,0.485972 0.95602,1.121474 1.29344,1.962579 0.35616,0.841105 0.52487,1.813049 0.52487,2.897141 0,1.196239 -0.2062,2.299021 -0.63734,3.327039 -0.43115,1.009326 -1.03101,1.813049 -1.76209,2.392478 1.04976,0.355133 1.83707,1.009326 2.39943,2.037344 0.54363,1.028017 0.82481,2.261639 0.82481,3.719555 0,1.140165 -0.16871,2.261639 -0.54362,3.383113 -0.35617,1.121473 -0.84355,2.056035 -1.44341,2.766302 -0.63735,0.710267 -1.40591,1.196239 -2.34319,1.439225 -0.58111,0.149529 -2.00578,0.355133 -4.27399,0.598119 -1.91204,0.168221 -3.88032,0.355133 -5.8861,0.523354 0,-8.392362 0,-16.803416 0,-25.21447 z m 3.54291,3.887776 c 0,1.943888 0,3.887776 0,5.831664 0.74982,-0.07476 1.49964,-0.130839 2.24947,-0.205604 1.34968,-0.130838 2.23072,-0.261677 2.56814,-0.336442 0.59985,-0.168221 1.08724,-0.523354 1.42466,-1.0654 0.35616,-0.542046 0.52487,-1.196239 0.52487,-1.999962 0,-0.785032 -0.14996,-1.401842 -0.44989,-1.869123 -0.28118,-0.467281 -0.74982,-0.691575 -1.33093,-0.747649 -0.35617,-0.01869 -1.38717,0.05607 -3.01804,0.205603 -0.65609,0.05607 -1.31218,0.130839 -1.96828,0.186913 z m 0,10.037191 c 0,2.242948 0,4.485895 0,6.728843 1.04975,-0.09346 2.11825,-0.186912 3.168,-0.29906 1.31219,-0.112147 2.11824,-0.261677 2.45566,-0.392516 0.52488,-0.186912 0.97477,-0.579428 1.29345,-1.140165 0.31867,-0.579428 0.48738,-1.289695 0.48738,-2.186874 0,-0.747649 -0.13122,-1.383151 -0.39366,-1.887814 -0.22494,-0.504663 -0.59985,-0.841105 -1.08724,-1.046709 -0.48738,-0.186912 -1.53713,-0.205604 -3.16799,-0.03738 -0.91854,0.07476 -1.83707,0.168221 -2.7556,0.261677 z"
             style="fill:#e30000;fill-opacity:1;fill-rule:evenodd;stroke:none"
             id="21"
             inkscape:connector-curvature="0" />
          <path
             d="m 357.00887,13.738055 c 1.18097,-0.130839 2.32445,-0.280369 3.46793,-0.411207 0,3.34573 0,6.710152 0,10.074573 1.4809,-0.186912 3.09301,-0.392515 4.68638,-0.61681 1.21846,-0.168221 2.24947,-0.07477 3.09302,0.280368 0.84355,0.355134 1.53713,1.121474 2.11825,2.299022 0.58111,1.177547 0.91853,2.542007 0.91853,4.186835 0,1.700902 -0.35617,3.214892 -0.97477,4.54197 -0.58111,1.345768 -1.21846,2.28033 -1.93079,2.766302 -0.73108,0.504663 -1.78083,0.859796 -3.22424,1.0654 -2.81183,0.373825 -5.4362,0.710267 -8.15431,1.028018 0,-8.411054 0,-16.803417 0,-25.214471 z m 3.46793,20.560354 c 1.08724,-0.130838 2.21197,-0.280368 3.39294,-0.429898 1.10599,-0.14953 1.87456,-0.336442 2.3057,-0.560737 0.41241,-0.224295 0.78732,-0.616811 1.10599,-1.196239 0.33742,-0.598119 0.48738,-1.308386 0.48738,-2.093418 0,-1.121474 -0.26243,-1.925197 -0.78731,-2.411169 -0.54362,-0.504663 -1.51839,-0.635501 -2.96179,-0.429898 -1.21846,0.168221 -2.41818,0.317751 -3.54291,0.44859 0,2.224256 0,4.448513 0,6.672769 z m 12.87819,-22.840684 c 1.12473,-0.205604 2.23072,-0.392516 3.31796,-0.59812 0,8.392363 0,16.803417 0,25.214471 -1.08724,0.205604 -2.19323,0.392516 -3.31796,0.598119 0,-8.411054 0,-16.822108 0,-25.21447 z"
             style="fill:#e30000;fill-opacity:1;fill-rule:evenodd;stroke:none"
             id="22"
             inkscape:connector-curvature="0" />
          <path
             d="m 380.40331,10.093265 c 1.12473,-0.06759 2.19323,-0.1261838 3.20549,-0.2131782 0,5.5886782 0,11.1773572 0,16.7660352 2.19323,-5.696171 5.51119,-11.833752 7.44198,-18.3789343 0.74982,-0.4500338 2.50705,-1.2678336 2.56329,-1.8936302 0,8.3923635 0.16807,16.7203705 0.16807,25.1314245 -0.0562,0.58842 -1.9253,1.461583 -2.5814,1.890408 0,-5.495222 0,-10.971753 0,-16.466975 -1.8558,6.445975 -5.19251,12.505556 -7.40449,18.142417 -1.06849,0.09598 -2.19322,0.163568 -3.39294,0.236904 0,-8.411054 0,-16.822108 0,-25.214471 z m 9.52274,-7.6275381 c 0.50613,-0.1930271 0.95602,-0.3957593 1.34968,-0.6081949 -0.075,1.6131946 -0.33742,2.988443 -0.88104,4.0908708 -0.59986,1.1487963 -1.57463,1.8777621 -2.94305,2.146281 -1.55588,0.2548605 -2.28696,-0.1329771 -2.88682,-0.9280689 -0.6186,-0.7983256 -0.91853,-2.00894 -0.99351,-3.5732513 0.46864,-0.049967 0.93728,-0.099934 1.40591,-0.1499019 0.0562,0.8134213 0.16871,1.4309562 0.48739,1.7850096 0.29993,0.3882002 1.04975,0.4989034 1.98703,0.3242053 0.88104,-0.1657123 1.51838,-0.4856266 1.8558,-1.0442097 0.33742,-0.558583 0.56237,-1.2113395 0.61861,-2.04274 z"
             style="fill:#e30000;fill-opacity:1;fill-rule:evenodd;stroke:none"
             id="23"
             inkscape:connector-curvature="0"
             sodipodi:nodetypes="ccccccccccccccccccccsc" />
          <text
             style="font-size:14.99643421px;font-style:normal;font-weight:normal;text-align:start;text-anchor:start;fill:#e30000;fill-opacity:1;font-family:Times New Roman"
             y="13.457686"
             x="0"
             xml:space="preserve"
             id="24"> </text>
        </g>
        <path
           style="fill:#1e7db3;fill-opacity:1;stroke:none"
           d="m 452.04242,578.21762 c -4.13351,0.6193 -9.93398,1.27717 -17.875,1.85404 l 0,22.45735 c 7.66666,-0.63494 13.57313,-1.35404 17.875,-1.9846 l 0,-22.32679 z m -135.53125,0.20891 0,22.32678 c 4.56199,0.63734 10.67517,1.31978 18.5625,1.93238 l 0,-22.45735 c -8.12256,-0.54612 -14.16579,-1.1884 -18.5625,-1.80181 z m 98.5625,2.66354 c -6.2524,0.21841 -13.36408,0.34378 -21.3125,0.41781 l 0,22.77072 c 7.95426,-0.0963 15.0138,-0.29635 21.40625,-0.57449 l 0,-22.61404 c -0.033,0.001 -0.0607,-0.001 -0.0937,0 z m -61,0.0522 0,22.64015 c 6.19942,0.24743 13.08472,0.41673 20.6875,0.49615 l 0,-22.7446 c -7.67455,-0.0616 -14.56874,-0.19525 -20.6875,-0.3917 z"
           id="path5579"
           inkscape:connector-curvature="0" />
        <path
           sodipodi:nodetypes="ccscccsc"
           style="opacity:0.18981479;fill:#000000;fill-opacity:1;stroke:none;filter:url(#filter4123)"
           d="m 324.21875,424.34375 0,314.375 c 13.22667,2.3051 32.52187,4.34375 59.34375,4.34375 26.82178,0 46.11708,-2.03866 59.34375,-4.34375 l 0,-147.91275 0,-166.46225 c -12.6443,2.04471 -31.5013,3.71875 -59.34375,3.71875 -27.84245,0 -46.69945,-1.67404 -59.34375,-3.71875 z"
           id="path4116"
           inkscape:connector-curvature="0"
           transform="matrix(1,0,0,1.0058654,0,-2.3630176)" />
        <path
           inkscape:transform-center-y="9.8751569"
           inkscape:transform-center-x="-6.0174426"
           d="m 379.00223,266.77445 c 0.005,0.10638 0.0339,0.20339 0.0874,0.29104 0.0887,0.14543 0.22098,0.23694 0.397,0.27443 0.17715,0.0395 0.34442,0.0112 0.50179,-0.0848 0.0836,-0.051 0.14917,-0.12289 0.1962,-0.21604 0.0472,-0.093 0.0715,-0.19195 0.0731,-0.29675 9.9e-4,-0.0252 -0.005,-0.0478 -0.0168,-0.0677 -0.0172,-0.0277 -0.0422,-0.0445 -0.0758,-0.0501 -0.0335,-0.006 -0.0632,-4.6e-4 -0.089,0.0153 -0.0384,0.0225 -0.0561,0.0561 -0.0546,0.0988 -0.003,0.0673 -0.0183,0.12888 -0.0472,0.18464 -0.0288,0.0557 -0.0711,0.10076 -0.127,0.13469 -0.0976,0.0595 -0.20067,0.0787 -0.30923,0.0575 -0.10539,-0.0205 -0.18599,-0.0765 -0.24195,-0.16806 -0.0314,-0.0519 -0.0497,-0.11048 -0.0542,-0.17616 l 0.0201,-1.66036 c -0.001,-0.0377 -0.009,-0.0684 -0.0235,-0.0923 -0.0328,-0.0538 -0.0861,-0.0582 -0.15975,-0.0133 l -0.81569,0.4977 c -0.0318,0.0194 -0.0499,0.0455 -0.0556,0.0769 -0.005,0.0319 1.5e-4,0.0608 0.0159,0.0867 0.018,0.0301 0.0417,0.0491 0.0702,0.0577 0.0284,0.009 0.0597,0.003 0.0934,-0.0182 l 0.63343,-0.38648 z"
           style="font-size:10px;font-style:normal;font-variant:normal;font-weight:normal;font-stretch:normal;line-height:125%;letter-spacing:0px;word-spacing:0px;fill:#000000;fill-opacity:1;stroke:none;font-family:GOST type B;-inkscape-font-specification:GOST type B"
           id="path5577"
           inkscape:connector-curvature="0" />
        <path
           style="fill:none;stroke:#000000;stroke-width:1.28125775;stroke-miterlimit:4;stroke-dasharray:1.28125783, 1.28125783;stroke-dashoffset:0"
           d="m 319.43094,557.68614 c 0,0 19.65554,4.25427 63.77801,4.25427 44.12247,0 63.77801,-4.25427 63.77801,-4.25427"
           id="path5593"
           inkscape:connector-curvature="0"
           sodipodi:nodetypes="czc" />
        <path
           sodipodi:nodetypes="czc"
           inkscape:connector-curvature="0"
           id="path5595"
           d="m 319.43094,562.16448 c 0,0 19.65554,4.25427 63.77801,4.25427 44.12247,0 63.77801,-4.25427 63.77801,-4.25427"
           style="fill:none;stroke:#000000;stroke-width:1.28125775;stroke-miterlimit:4;stroke-dasharray:1.28125783, 1.28125783;stroke-dashoffset:0" />
        <path
           style="font-size:medium;font-style:normal;font-variant:normal;font-weight:normal;font-stretch:normal;text-indent:0;text-align:start;text-decoration:none;line-height:normal;letter-spacing:normal;word-spacing:normal;text-transform:none;direction:ltr;block-progression:tb;writing-mode:lr-tb;text-anchor:start;baseline-shift:baseline;color:#000000;fill:#000000;fill-opacity:1;stroke:none;stroke-width:1.28125775;marker:none;visibility:visible;display:inline;overflow:visible;enable-background:accumulate;font-family:Sans;-inkscape-font-specification:Sans"
           d="M 231.96875 434.4375 L 231.75 434.46875 L 230.90625 434.5625 L 231.03125 435.8125 L 231.90625 435.71875 L 231.96875 435.71875 L 231.96875 434.4375 z M 128.71875 434.5625 L 128.5625 435.84375 L 129.84375 435.96875 L 129.96875 434.6875 L 128.71875 434.5625 z M 229.625 434.6875 L 228.34375 434.8125 L 228.5 436.09375 L 229.78125 435.96875 L 229.625 434.6875 z M 131.25 434.84375 L 131.125 436.125 L 131.25 436.125 L 132.40625 436.25 L 132.53125 434.96875 L 131.375 434.84375 L 131.25 434.84375 z M 227.09375 434.9375 L 225.8125 435.0625 L 225.9375 436.34375 L 227.21875 436.21875 L 227.09375 434.9375 z M 133.8125 435.09375 L 133.6875 436.34375 L 134.9375 436.46875 L 135.0625 435.21875 L 133.8125 435.09375 z M 224.53125 435.1875 L 223.9375 435.25 L 223.28125 435.3125 L 223.375 436.59375 L 224.0625 436.53125 L 224.65625 436.46875 L 224.53125 435.1875 z M 136.34375 435.3125 L 136.25 436.59375 L 137.5 436.6875 L 137.625 435.40625 L 136.34375 435.3125 z M 222 435.40625 L 220.71875 435.5 L 220.8125 436.78125 L 222.09375 436.6875 L 222 435.40625 z M 138.90625 435.53125 L 138.78125 436.8125 L 140.0625 436.90625 L 140.1875 435.625 L 138.90625 435.53125 z M 219.25 435.625 L 218.15625 435.71875 L 218.25 436.96875 L 219.34375 436.90625 L 219.375 436.90625 L 219.53125 436.90625 L 219.4375 435.625 L 219.28125 435.625 L 219.25 435.625 z M 141.4375 435.71875 L 141.34375 437 L 142.625 437.09375 L 142.71875 435.8125 L 141.4375 435.71875 z M 216.90625 435.78125 L 215.625 435.875 L 215.71875 437.15625 L 216.96875 437.0625 L 216.90625 435.78125 z M 144 435.90625 L 143.90625 437.15625 L 145.1875 437.25 L 145.28125 435.96875 L 144 435.90625 z M 214.34375 435.96875 L 214.0625 436 L 214.03125 436 L 213.0625 436.03125 L 213.125 437.3125 L 214.125 437.28125 L 214.4375 437.25 L 214.34375 435.96875 z M 146.5625 436.0625 L 146.46875 437.34375 L 147.75 437.40625 L 147.8125 436.125 L 146.5625 436.0625 z M 211.78125 436.125 L 210.5 436.1875 L 210.59375 437.46875 L 211.84375 437.40625 L 211.78125 436.125 z M 149.09375 436.1875 L 149.03125 437.46875 L 150.3125 437.53125 L 150.375 436.28125 L 149.09375 436.1875 z M 209.21875 436.25 L 208.28125 436.3125 L 207.96875 436.3125 L 208 437.59375 L 208.34375 437.59375 L 209.3125 437.53125 L 209.21875 436.25 z M 151.65625 436.34375 L 151.59375 437.625 L 152.875 437.65625 L 152.9375 436.375 L 151.65625 436.34375 z M 206.6875 436.375 L 205.40625 436.4375 L 205.4375 437.71875 L 206.71875 437.65625 L 206.6875 436.375 z M 154.21875 436.4375 L 154.15625 437.71875 L 155.4375 437.78125 L 155.5 436.5 L 154.21875 436.4375 z M 204.125 436.5 L 202.84375 436.53125 L 202.90625 437.8125 L 204.1875 437.78125 L 204.125 436.5 z M 156.78125 436.5625 L 156.71875 437.84375 L 157.4375 437.875 L 158 437.875 L 158.0625 436.59375 L 157.5 436.59375 L 156.78125 436.5625 z M 201.5625 436.59375 L 200.28125 436.625 L 200.3125 437.90625 L 201.59375 437.875 L 201.5625 436.59375 z M 159.34375 436.625 L 159.28125 437.90625 L 160.5625 437.96875 L 160.625 436.6875 L 159.34375 436.625 z M 199 436.6875 L 197.71875 436.71875 L 197.75 438 L 199.03125 437.96875 L 199 436.6875 z M 161.90625 436.71875 L 161.84375 438 L 163.125 438.03125 L 163.1875 436.75 L 161.90625 436.71875 z M 196.4375 436.75 L 195.15625 436.78125 L 195.1875 438.0625 L 196.46875 438.03125 L 196.4375 436.75 z M 164.4375 436.78125 L 164.40625 438.0625 L 165.6875 438.09375 L 165.71875 436.8125 L 164.4375 436.78125 z M 193.875 436.8125 L 192.59375 436.84375 L 192.625 438.125 L 193.90625 438.09375 L 193.875 436.8125 z M 167 436.84375 L 166.96875 438.125 L 168.25 438.15625 L 168.28125 436.875 L 167 436.84375 z M 169.5625 436.875 L 169.53125 438.15625 L 170.8125 438.1875 L 170.84375 436.90625 L 169.5625 436.875 z M 190.03125 436.875 L 190.0625 438.15625 L 191.34375 438.15625 L 191.3125 436.875 L 190.03125 436.875 z M 188.75 436.90625 L 187.71875 436.9375 L 187.5 436.9375 L 187.5 438.21875 L 187.71875 438.21875 L 187.75 438.21875 L 188.78125 438.1875 L 188.75 436.90625 z M 172.125 436.9375 L 172.125 438.21875 L 173.40625 438.21875 L 173.40625 436.9375 L 172.125 436.9375 z M 174.6875 436.9375 L 174.6875 438.21875 L 175.96875 438.21875 L 175.96875 436.9375 L 174.6875 436.9375 z M 183.65625 436.9375 L 182.375 436.96875 L 182.375 438.25 L 183.65625 438.21875 L 183.65625 436.9375 z M 184.9375 436.9375 L 184.9375 438.21875 L 186.21875 438.21875 L 186.21875 436.9375 L 184.9375 436.9375 z M 177.25 436.96875 L 177.25 438.25 L 178.53125 438.25 L 178.53125 436.96875 L 177.25 436.96875 z M 179.8125 436.96875 L 179.8125 438.25 L 181.09375 438.25 L 181.09375 436.96875 L 179.8125 436.96875 z "
           transform="translate(203.47992,133.28012)"
           id="path5597" />
        <path
           sodipodi:nodetypes="czc"
           inkscape:connector-curvature="0"
           id="path5599"
           d="m 319.43094,571.12117 c 0,0 19.65554,4.25427 63.77801,4.25427 44.12247,0 63.77801,-4.25427 63.77801,-4.25427"
           style="fill:none;stroke:#000000;stroke-width:1.28125775;stroke-miterlimit:4;stroke-dasharray:1.28125783, 1.28125783;stroke-dashoffset:0" />
        <path
           sodipodi:nodetypes="czc"
           inkscape:connector-curvature="0"
           id="path5601"
           d="m 319.43094,609.43614 c 0,0 19.65554,4.25427 63.77801,4.25427 44.12247,0 63.77801,-4.25427 63.77801,-4.25427"
           style="fill:none;stroke:#000000;stroke-width:1.28125775;stroke-miterlimit:4;stroke-dasharray:1.28125783, 1.28125783;stroke-dashoffset:0" />
        <path
           style="fill:none;stroke:#000000;stroke-width:1.28125775;stroke-miterlimit:4;stroke-dasharray:1.28125783, 1.28125783;stroke-dashoffset:0"
           d="m 319.43094,613.91448 c 0,0 19.65554,4.25427 63.77801,4.25427 44.12247,0 63.77801,-4.25427 63.77801,-4.25427"
           id="path5603"
           inkscape:connector-curvature="0"
           sodipodi:nodetypes="czc" />
        <path
           sodipodi:nodetypes="czc"
           inkscape:connector-curvature="0"
           id="path5605"
           d="m 319.43094,618.39282 c 0,0 19.65554,4.25427 63.77801,4.25427 44.12247,0 63.77801,-4.25427 63.77801,-4.25427"
           style="fill:none;stroke:#000000;stroke-width:1.28125775;stroke-miterlimit:4;stroke-dasharray:1.28125783, 1.28125783;stroke-dashoffset:0" />
        <path
           style="fill:none;stroke:#000000;stroke-width:1.28125775;stroke-miterlimit:4;stroke-dasharray:1.28125783, 1.28125783;stroke-dashoffset:0"
           d="m 319.43094,622.87117 c 0,0 19.65554,4.25427 63.77801,4.25427 44.12247,0 63.77801,-4.25427 63.77801,-4.25427"
           id="path5607"
           inkscape:connector-curvature="0"
           sodipodi:nodetypes="czc" />
        <path
           style="font-size:medium;font-style:normal;font-variant:normal;font-weight:normal;font-stretch:normal;text-indent:0;text-align:start;text-decoration:none;line-height:normal;letter-spacing:normal;word-spacing:normal;text-transform:none;direction:ltr;block-progression:tb;writing-mode:lr-tb;text-anchor:start;baseline-shift:baseline;color:#000000;fill:#df0000;fill-opacity:1;stroke:none;stroke-width:1.28125775000000000;marker:none;visibility:visible;display:inline;overflow:visible;enable-background:accumulate;font-family:Sans;-inkscape-font-specification:Sans"
           d="m 319.3125,537.0625 0.9375,0.1875 0.34375,0.0625 0.21875,-1.28125 L 320.5,536 l -0.0312,0 -0.90625,-0.1875 z M 444.5,536.25 l 0.21875,1.25 1.25,-0.21875 -0.21875,-1.25 z m -122.65625,1.28125 1.25,0.1875 0,0.0312 0.0312,0 0.1875,-1.28125 -0.0312,0 -1.21875,-0.21875 z m 121.28125,-1.0625 -1.15625,0.15625 0.1875,1.28125 1.15625,-0.15625 0,-0.0312 0.0312,0 0.0937,0 -0.21875,-1.28125 z m -118.71875,1.4375 1.25,0.1875 0.1875,-1.25 -1.28125,-0.1875 z M 439.4375,537 l 0.1875,1.25 1.25,-0.15625 -0.15625,-1.28125 z m -112.5,1.28125 0.9375,0.125 0.0312,0 0.3125,0.0625 0.15625,-1.28125 -0.3125,-0.0312 L 327.125,537 z m 109.96875,-0.96875 0.15625,1.28125 1.28125,-0.15625 -0.15625,-1.28125 z M 329.5,538.625 l 1.25,0.15625 0.15625,-1.28125 -1.28125,-0.15625 z m 105.71875,-1.09375 -0.84375,0.0937 0.125,1.28125 0.875,-0.0937 0.40625,-0.0625 -0.15625,-1.28125 z m -103.1875,1.375 1.28125,0.15625 0.125,-1.28125 -1.25,-0.15625 z m 99.78125,-1 0.15625,1.28125 1.28125,-0.15625 -0.15625,-1.28125 z m -97.21875,1.28125 0.125,0 1.15625,0.125 0.125,-1.28125 -1.15625,-0.0937 -0.125,-0.0312 z m 94.6875,-1.03125 0.125,1.25 1.28125,-0.0937 -0.125,-1.28125 z m -92.125,1.28125 1.25,0.125 0.125,-1.28125 -1.25,-0.125 z m 90.25,-1.125 -0.65625,0.0625 0.0937,1.28125 0.6875,-0.0625 0.59375,-0.0625 L 428,538.25 z m -87.6875,1.34375 1.25,0.125 0.125,-1.28125 -1.28125,-0.125 z m 84.46875,-1.0625 0.0937,1.28125 1.28125,-0.125 -0.0937,-1.28125 z m -81.9375,1.28125 1.28125,0.0937 0.125,-1.28125 -1.28125,-0.0937 z m 80.5,-1.15625 -0.0312,0 -1.09375,0.0625 0.0937,1.28125 1.09375,-0.0937 0.0312,0 0.15625,0 -0.0937,-1.28125 z m -77.9375,1.34375 1.28125,0.0937 0.0937,-1.28125 -1.28125,-0.0937 z m 74.28125,-1.09375 0.0937,1.28125 1.25,-0.0937 -0.0625,-1.28125 z M 347.375,540.25 l 1.28125,0.0937 0.0937,-1.28125 -1.28125,-0.0937 z m 70.15625,-1.1875 -0.0312,0 -0.96875,0.0625 0.0625,1.28125 1,-0.0625 0.3125,-0.0312 -0.0937,-1.28125 z m -67.59375,1.34375 1.28125,0.0625 0.0625,-1.28125 -1.25,-0.0625 z m 64.03125,-1.15625 0.0937,1.28125 1.25,-0.0625 -0.0625,-1.28125 z m -61.46875,1.3125 1.28125,0.0625 0.0625,-1.28125 -1.28125,-0.0625 z m 59.25,-1.1875 -0.3125,0.0312 0.0312,1.28125 0.34375,-0.0312 0.96875,-0.0312 -0.0937,-1.28125 z m -56.6875,1.3125 1.28125,0.0625 0.0625,-1.28125 -1.28125,-0.0625 z m 53.8125,-1.1875 0.0312,1.28125 1.28125,-0.0312 -0.0312,-1.28125 z m -51.25,1.28125 1.28125,0.0625 0.0625,-1.28125 -1.28125,-0.0312 z m 48.6875,-1.15625 0.0625,1.28125 1.28125,-0.0625 -0.0625,-1.28125 z m -46.125,1.28125 0.71875,0.0312 0.5625,0.0312 0.0625,-1.28125 -0.5625,-0.0312 -0.71875,-0.0312 z m 43.5625,-1.1875 0.0312,1.28125 1.28125,-0.0625 -0.0312,-1.28125 z m -41,1.28125 1.28125,0.0312 0.0625,-1.28125 -1.28125,-0.0312 z m 38.4375,-1.21875 0.0312,1.28125 1.28125,-0.0312 -0.0312,-1.28125 z m -35.875,1.28125 1.28125,0.0625 0.0625,-1.28125 -1.28125,-0.0625 z m 33.3125,-1.1875 0.0312,1.28125 1.28125,-0.0625 -0.0312,-1.28125 z m -30.75,1.28125 1.28125,0.0312 0.0312,-1.28125 -1.28125,-0.0312 z m 28.1875,-1.25 0.0312,1.28125 1.28125,-0.0312 -0.0312,-1.28125 z m -25.625,1.28125 1.28125,0.0312 0.0312,-1.28125 -1.28125,-0.0312 z m 23.0625,-1.21875 0.0312,1.28125 1.28125,-0.0312 -0.0312,-1.28125 z M 373,541.25 l 1.28125,0.0312 0.0312,-1.28125 -1.28125,-0.0312 z m 18.1875,-1.25 -0.21875,0 0,1.28125 0.21875,0 0.0312,0 1.03125,-0.0312 -0.0312,-1.28125 z m -15.59375,1.28125 1.28125,0 0,-1.28125 -1.28125,0 z m 12.8125,-1.25 0,1.28125 1.28125,-0.0312 0,-1.28125 z m -10.25,1.28125 1.28125,0 0,-1.28125 -1.28125,0 z m 2.5625,0 1.28125,0 0,-1.28125 -1.28125,0 z m 2.5625,-1.25 0,1.28125 1.28125,-0.0312 0,-1.28125 z m 2.5625,1.25 1.28125,0 0,-1.28125 -1.28125,0 z"
           id="path5609"
           inkscape:connector-curvature="0" />
        <path
           style="font-size:medium;font-style:normal;font-variant:normal;font-weight:normal;font-stretch:normal;text-indent:0;text-align:start;text-decoration:none;line-height:normal;letter-spacing:normal;word-spacing:normal;text-transform:none;direction:ltr;block-progression:tb;writing-mode:lr-tb;text-anchor:start;baseline-shift:baseline;color:#000000;fill:#df0000;fill-opacity:1;stroke:none;stroke-width:1.28125775000000000;marker:none;visibility:visible;display:inline;overflow:visible;enable-background:accumulate;font-family:Sans;-inkscape-font-specification:Sans"
           d="m 319.3125,541.53125 0.9375,0.1875 0.34375,0.0625 0.21875,-1.25 -0.3125,-0.0625 -0.0312,0 -0.90625,-0.1875 z m 125.1875,-0.8125 0.21875,1.25 1.25,-0.21875 L 445.75,540.5 z M 321.84375,542 l 1.25,0.21875 0.0312,0 0.1875,-1.28125 -0.0312,0 -1.21875,-0.1875 z m 120.125,-0.875 0.1875,1.25 1.15625,-0.15625 0.0312,0 0.0937,-0.0312 -0.21875,-1.25 -0.0937,0 z m -117.5625,1.28125 1.25,0.1875 0.1875,-1.28125 -1.28125,-0.1875 z m 115.03125,-0.9375 0.1875,1.28125 1.25,-0.1875 -0.15625,-1.28125 z m -112.5,1.28125 0.9375,0.15625 0.0312,0 0.3125,0.0312 0.15625,-1.28125 -0.3125,-0.0312 -0.9375,-0.125 z m 109.96875,-0.9375 0.15625,1.25 1.28125,-0.15625 -0.15625,-1.25 z M 329.5,543.09375 l 1.25,0.15625 0.15625,-1.28125 -1.28125,-0.15625 z M 435.21875,542 l -0.84375,0.0937 0.125,1.28125 0.875,-0.0937 0.40625,-0.0625 -0.15625,-1.25 z m -103.1875,1.375 1.28125,0.15625 0.125,-1.28125 -1.25,-0.125 z m 99.78125,-1 0.15625,1.28125 1.28125,-0.15625 -0.15625,-1.25 z m -97.21875,1.28125 0.125,0.0312 1.15625,0.0937 L 336,542.5 l -1.15625,-0.0937 -0.125,0 z m 94.6875,-1.03125 0.125,1.28125 1.28125,-0.125 -0.125,-1.28125 z m -92.125,1.28125 1.25,0.125 0.125,-1.28125 -1.25,-0.125 z m 90.25,-1.09375 -0.65625,0.0312 0.0937,1.28125 0.6875,-0.0625 0.59375,-0.0312 L 428,542.75 z m -87.6875,1.34375 1.25,0.0937 0.125,-1.28125 -1.28125,-0.0937 z m 84.46875,-1.09375 0.0937,1.28125 1.28125,-0.0937 -0.0937,-1.28125 z m -81.9375,1.28125 1.28125,0.125 0.125,-1.28125 -1.28125,-0.125 z m 80.5,-1.15625 -0.0312,0 -1.09375,0.0625 0.0937,1.28125 1.09375,-0.0625 0.0312,0 0.15625,-0.0312 -0.0937,-1.28125 z m -77.9375,1.34375 1.28125,0.0937 0.0937,-1.28125 -1.28125,-0.0625 z m 74.28125,-1.09375 0.0937,1.28125 1.25,-0.0937 -0.0625,-1.28125 z m -71.71875,1.28125 1.28125,0.0937 0.0937,-1.28125 -1.28125,-0.0937 z m 69.15625,-1.125 0.0625,1.28125 1,-0.0625 0.3125,0 -0.0937,-1.28125 -0.28125,0 -0.0312,0 z m -66.59375,1.28125 1.28125,0.0937 0.0625,-1.28125 -1.25,-0.0937 z m 64.03125,-1.125 0.0937,1.28125 1.25,-0.0937 -0.0625,-1.28125 z m -61.46875,1.28125 1.28125,0.0625 0.0625,-1.28125 -1.28125,-0.0625 z m 59.25,-1.15625 -0.3125,0 0.0312,1.28125 0.34375,0 0.96875,-0.0625 -0.0937,-1.28125 z m -56.6875,1.28125 1.28125,0.0625 0.0625,-1.28125 -1.28125,-0.0625 z M 408.875,544 l 0.0312,1.28125 1.28125,-0.0625 -0.0312,-1.28125 z m -51.25,1.28125 1.28125,0.0625 0.0625,-1.28125 L 357.6875,544 z m 48.6875,-1.1875 0.0625,1.28125 1.28125,-0.0625 -0.0625,-1.28125 z m -46.125,1.28125 0.71875,0.0312 0.5625,0.0312 0.0625,-1.28125 -0.5625,-0.0312 -0.71875,-0.0312 z m 43.5625,-1.1875 0.0312,1.28125 1.28125,-0.0312 -0.0312,-1.28125 z m -41,1.28125 1.28125,0.0312 0.0625,-1.28125 -1.28125,-0.0312 z m 38.4375,-1.1875 0.0312,1.28125 1.28125,-0.0625 -0.0312,-1.28125 z m -35.875,1.28125 1.28125,0.0312 0.0625,-1.28125 -1.28125,-0.0312 z m 33.3125,-1.21875 0.0312,1.28125 1.28125,-0.0312 -0.0312,-1.28125 z m -30.75,1.28125 1.28125,0.0312 0.0312,-1.28125 -1.28125,-0.0312 z m 28.1875,-1.21875 0.0312,1.28125 1.28125,-0.0312 -0.0312,-1.28125 z m -25.625,1.28125 1.28125,0 0.0312,-1.28125 -1.28125,0 z m 23.0625,-1.25 0.0312,1.28125 1.28125,-0.0312 -0.0312,-1.28125 z m -20.5,1.28125 1.28125,0.0312 0.0312,-1.28125 -1.28125,-0.0312 z m 2.59375,0.0312 1.28125,0.0312 0,-1.28125 -1.28125,-0.0312 z m 15.375,0 0.21875,0 0.0312,0 1.03125,0 -0.0312,-1.28125 -1.03125,0 -0.21875,0 z m -12.8125,0.0312 1.28125,0 0,-1.28125 -1.28125,0 z m 2.5625,0 1.28125,0.0312 0,-1.28125 -1.28125,-0.0312 z m 5.125,0 1.28125,0 0,-1.28125 -1.28125,0 z m 2.5625,0 1.28125,0 0,-1.28125 -1.28125,0 z m -5.125,0.0312 1.28125,0 0,-1.28125 -1.28125,0 z"
           id="path5611"
           inkscape:connector-curvature="0" />
        <path
           style="font-size:medium;font-style:normal;font-variant:normal;font-weight:normal;font-stretch:normal;text-indent:0;text-align:start;text-decoration:none;line-height:normal;letter-spacing:normal;word-spacing:normal;text-transform:none;direction:ltr;block-progression:tb;writing-mode:lr-tb;text-anchor:start;baseline-shift:baseline;color:#000000;fill:#df0000;fill-opacity:1;stroke:none;stroke-width:1.28125775000000000;marker:none;visibility:visible;display:inline;overflow:visible;enable-background:accumulate;font-family:Sans;-inkscape-font-specification:Sans"
           d="m 319.3125,546.03125 0.9375,0.1875 0.34375,0.0312 0.21875,-1.25 -0.3125,-0.0625 -0.0312,0 -0.90625,-0.1875 z M 444.5,545.1875 l 0.21875,1.28125 1.25,-0.21875 -0.21875,-1.28125 z m -122.65625,1.28125 1.25,0.21875 0.0312,0 0.1875,-1.25 -0.0312,0 -1.21875,-0.21875 z m 121.28125,-1.03125 -1.15625,0.15625 0.1875,1.25 1.15625,-0.15625 0.0312,0 0.0937,-0.0312 -0.21875,-1.25 z m -118.71875,1.4375 1.25,0.1875 0.1875,-1.28125 -1.28125,-0.1875 z m 115.03125,-0.9375 0.1875,1.28125 1.25,-0.1875 -0.15625,-1.25 z m -112.5,1.3125 0.9375,0.125 0.0312,0 0.3125,0.0312 0.15625,-1.25 -0.3125,-0.0625 -0.9375,-0.125 z m 109.96875,-0.96875 0.15625,1.28125 1.28125,-0.15625 -0.15625,-1.28125 z M 329.5,547.5625 l 1.25,0.15625 0.15625,-1.28125 -1.28125,-0.15625 z m 105.71875,-1.0625 -0.84375,0.0937 0.125,1.25 0.875,-0.0937 0.40625,-0.0312 -0.15625,-1.28125 z m -103.1875,1.375 1.28125,0.125 0.125,-1.28125 -1.25,-0.125 z m 99.78125,-1.03125 0.15625,1.28125 1.28125,-0.125 -0.15625,-1.28125 z m -97.21875,1.3125 0.125,0 1.15625,0.125 L 336,547 l -1.15625,-0.125 -0.125,0 z m 94.6875,-1.0625 0.125,1.28125 1.28125,-0.125 -0.125,-1.28125 z m -92.125,1.28125 1.25,0.125 0.125,-1.25 -1.25,-0.125 z m 90.25,-1.09375 -0.65625,0.0625 0.0937,1.28125 0.6875,-0.0625 L 428.125,548.5 428,547.21875 z m -87.6875,1.34375 1.25,0.0937 0.125,-1.28125 -1.28125,-0.0937 z m 84.46875,-1.09375 0.0937,1.28125 1.28125,-0.0937 -0.0937,-1.28125 z m -81.9375,1.3125 1.28125,0.0937 0.125,-1.28125 -1.28125,-0.0937 z m 79.375,-1.09375 0.0937,1.25 1.09375,-0.0625 0.0312,0 0.15625,0 -0.0937,-1.28125 -0.15625,0 -0.0312,0 z m -76.8125,1.28125 1.28125,0.0937 0.0937,-1.28125 -1.28125,-0.0937 z m 74.28125,-1.125 0.0937,1.28125 1.25,-0.0937 -0.0625,-1.28125 z m -71.71875,1.28125 1.28125,0.0937 L 348.75,548 l -1.28125,-0.0625 z m 70.15625,-1.15625 -0.0312,0 -0.96875,0.0312 0.0625,1.28125 1,-0.0312 0.3125,-0.0312 L 417.8125,548 z m -67.59375,1.34375 1.28125,0.0625 0.0625,-1.28125 -1.25,-0.0625 z m 64.03125,-1.15625 0.0937,1.28125 1.25,-0.0625 -0.0625,-1.28125 z M 352.5,549.5 l 1.28125,0.0625 0.0625,-1.25 -1.28125,-0.0937 z m 59.25,-1.15625 -0.3125,0 0.0312,1.28125 0.34375,0 0.96875,-0.0625 -0.0937,-1.28125 z m -56.6875,1.3125 1.28125,0.0312 0.0625,-1.28125 -1.28125,-0.0312 z m 53.8125,-1.1875 0.0312,1.28125 1.28125,-0.0625 -0.0312,-1.28125 z m -51.25,1.28125 1.28125,0.0625 0.0625,-1.28125 -1.28125,-0.0625 z m 48.6875,-1.1875 0.0625,1.28125 1.28125,-0.0312 -0.0625,-1.28125 z m -46.125,1.3125 0.71875,0.0312 0.5625,0 0.0625,-1.28125 -0.5625,0 -0.71875,-0.0312 z m 43.5625,-1.21875 0.0312,1.28125 1.28125,-0.0312 -0.0312,-1.28125 z m -41,1.28125 1.28125,0.0625 0.0625,-1.28125 -1.28125,-0.0625 z m 38.4375,-1.1875 0.0312,1.28125 L 402.5,550 l -0.0312,-1.28125 z m -35.875,1.28125 1.28125,0.0312 0.0625,-1.28125 -1.28125,-0.0312 z m 33.3125,-1.21875 0.0312,1.28125 1.28125,-0.0312 -0.0312,-1.28125 z m -30.75,1.28125 1.28125,0.0312 0.0312,-1.28125 -1.28125,-0.0312 z m 28.1875,-1.21875 0.0312,1.28125 1.28125,-0.0312 -0.0312,-1.28125 z m -25.625,1.28125 1.28125,0.0312 0.0312,-1.28125 -1.28125,-0.0312 z m 2.5625,0.0312 1.28125,0.0312 0.0312,-1.28125 -1.28125,-0.0312 z m 20.53125,0 1.28125,0 -0.0312,-1.28125 -1.28125,0 z m -2.34375,-1.21875 -0.21875,0 0,1.28125 0.21875,0 0.0312,0 1.03125,-0.0312 -0.0312,-1.28125 z m -15.59375,1.28125 1.28125,0 0,-1.28125 -1.28125,0 z m 2.5625,0 1.28125,0 0,-1.28125 -1.28125,0 z m 7.6875,-1.25 0,1.28125 1.28125,-0.0312 0,-1.28125 z m 2.5625,1.25 1.28125,0 0,-1.28125 -1.28125,0 z m -7.6875,0.0312 1.28125,0 0,-1.28125 -1.28125,0 z m 2.5625,0 1.28125,0 0,-1.28125 -1.28125,0 z"
           id="path5613"
           inkscape:connector-curvature="0" />
        <path
           style="font-size:medium;font-style:normal;font-variant:normal;font-weight:normal;font-stretch:normal;text-indent:0;text-align:start;text-decoration:none;line-height:normal;letter-spacing:normal;word-spacing:normal;text-transform:none;direction:ltr;block-progression:tb;writing-mode:lr-tb;text-anchor:start;baseline-shift:baseline;color:#000000;fill:#df0000;fill-opacity:1;stroke:none;stroke-width:1.28125775;marker:none;visibility:visible;display:inline;overflow:visible;enable-background:accumulate;font-family:Sans;-inkscape-font-specification:Sans"
           d="m 338.40625,553 0.125,-1.28125 c -1.72646,-0.37429 -1.86741,1.10701 -0.125,1.28125 z m 1.3125,0.0937 1.25,0.125 0.125,-1.28125 -1.28125,-0.125 z m 84.46875,-1.0625 0.0937,1.28125 1.28125,-0.125 -0.0937,-1.28125 z m -81.9375,1.28125 1.28125,0.0937 0.125,-1.28125 -1.28125,-0.0937 z m 79.375,-1.09375 0.0937,1.28125 1.09375,-0.0937 0.0312,0 0.15625,0 -0.0937,-1.28125 -0.15625,0.0312 0,-0.0312 z m -76.8125,1.28125 1.28125,0.0937 0.0937,-1.28125 -1.28125,-0.0937 z m 74.28125,-1.09375 0.0937,1.25 1.25,-0.0625 -0.0625,-1.28125 z m -71.71875,1.28125 1.28125,0.0937 0.0937,-1.28125 -1.28125,-0.0937 z m 70.15625,-1.1875 -0.0312,0 -0.96875,0.0625 0.0625,1.28125 1,-0.0625 0.3125,-0.0312 -0.0937,-1.28125 z m -67.59375,1.34375 1.28125,0.0625 0.0625,-1.28125 -1.25,-0.0625 z m 64.03125,-1.15625 0.0937,1.28125 1.25,-0.0625 -0.0625,-1.28125 z m -61.46875,1.28125 1.28125,0.0937 0.0625,-1.28125 -1.28125,-0.0625 z m 59.25,-1.15625 -0.3125,0.0312 0.0312,1.28125 0.34375,-0.0312 0.96875,-0.0312 -0.0937,-1.28125 z m -56.6875,1.3125 1.28125,0.0625 0.0625,-1.28125 -1.28125,-0.0625 z m 53.8125,-1.1875 0.0312,1.28125 1.28125,-0.0625 -0.0312,-1.28125 z m -51.25,1.28125 1.28125,0.0625 0.0625,-1.28125 -1.28125,-0.0625 z m 48.6875,-1.15625 0.0625,1.28125 1.28125,-0.0625 L 407.59375,553 z m -46.125,1.28125 0.71875,0.0312 0.5625,0 0.0625,-1.25 -0.5625,-0.0312 -0.71875,-0.0312 z m 43.5625,-1.1875 0.0312,1.28125 1.28125,-0.0625 -0.0312,-1.28125 z m -41,1.28125 1.28125,0.0312 0.0625,-1.28125 -1.28125,-0.0312 z m 38.4375,-1.21875 0.0312,1.28125 1.28125,-0.0312 -0.0312,-1.28125 z m -35.875,1.28125 1.28125,0.0625 0.0625,-1.28125 -1.28125,-0.0625 z m 33.3125,-1.1875 0.0312,1.28125 1.28125,-0.0625 -0.0312,-1.28125 z m -30.75,1.28125 1.28125,0 0.0312,-1.28125 -1.28125,0 z m 28.1875,-1.25 0.0312,1.28125 1.28125,-0.0312 -0.0312,-1.28125 z m -25.625,1.28125 1.28125,0.0312 0.0312,-1.28125 -1.28125,-0.0312 z m 23.0625,-1.21875 0.0312,1.28125 1.28125,-0.0312 -0.0312,-1.28125 z m -20.5,1.28125 1.28125,0 0.0312,-1.28125 -1.28125,0 z m 18.1875,-1.25 -0.21875,0 0,1.28125 0.21875,0 0.0312,0 1.03125,-0.0312 -0.0312,-1.28125 z m -15.59375,1.28125 1.28125,0 0,-1.28125 -1.28125,0 z m 12.8125,-1.25 0,1.28125 1.28125,-0.0312 0,-1.28125 z m -10.25,1.28125 1.28125,0 0,-1.28125 -1.28125,0 z m 2.5625,0 1.28125,0 0,-1.28125 -1.28125,0 z m 2.5625,-1.25 0,1.28125 1.28125,-0.0312 0,-1.28125 z m 2.5625,1.25 1.28125,0 0,-1.28125 -1.28125,0 z"
           id="path5615"
           inkscape:connector-curvature="0"
           sodipodi:nodetypes="ccccccccccccccccccccccccccccccccccccccccccccccccccccccccccccccccccccccccccccccccccccccccccccccccccccccccccccccccccccccccccccccccccccccccccccccccccccccccccccccccccacccacccacccccccccccccccc" />
        <path
           style="fill:none;stroke:#000000;stroke-width:1.28125775;stroke-miterlimit:4;stroke-dasharray:1.28125783, 1.28125783;stroke-dashoffset:0"
           d="m 319.43094,630.93614 c 0,0 19.65554,4.25427 63.77801,4.25427 44.12247,0 63.77801,-4.25427 63.77801,-4.25427"
           id="path5643"
           inkscape:connector-curvature="0"
           sodipodi:nodetypes="czc" />
        <path
           sodipodi:nodetypes="czc"
           inkscape:connector-curvature="0"
           id="path5645"
           d="m 319.43094,635.41448 c 0,0 19.65554,4.25427 63.77801,4.25427 44.12247,0 63.77801,-4.25427 63.77801,-4.25427"
           style="fill:none;stroke:#000000;stroke-width:1.28125775;stroke-miterlimit:4;stroke-dasharray:1.28125783, 1.28125783;stroke-dashoffset:0" />
        <path
           style="fill:none;stroke:#000000;stroke-width:1.28125775;stroke-miterlimit:4;stroke-dasharray:1.28125783, 1.28125783;stroke-dashoffset:0"
           d="m 319.43094,639.89282 c 0,0 19.65554,4.25427 63.77801,4.25427 44.12247,0 63.77801,-4.25427 63.77801,-4.25427"
           id="path5647"
           inkscape:connector-curvature="0"
           sodipodi:nodetypes="czc" />
        <path
           sodipodi:nodetypes="czc"
           inkscape:connector-curvature="0"
           id="path5649"
           d="m 319.43094,644.37117 c 0,0 19.65554,4.25427 63.77801,4.25427 44.12247,0 63.77801,-4.25427 63.77801,-4.25427"
           style="fill:none;stroke:#000000;stroke-width:1.28125775;stroke-miterlimit:4;stroke-dasharray:1.28125783, 1.28125783;stroke-dashoffset:0" />
        <path
           sodipodi:nodetypes="czc"
           inkscape:connector-curvature="0"
           id="path5651"
           d="m 319.43094,653.93614 c 0,0 19.65554,4.25427 63.77801,4.25427 44.12247,0 63.77801,-4.25427 63.77801,-4.25427"
           style="fill:none;stroke:#000000;stroke-width:1.28125775;stroke-miterlimit:4;stroke-dasharray:1.28125783, 1.28125783;stroke-dashoffset:0" />
        <path
           style="fill:none;stroke:#000000;stroke-width:1.28125775;stroke-miterlimit:4;stroke-dasharray:1.28125783, 1.28125783;stroke-dashoffset:0"
           d="m 319.43094,658.41448 c 0,0 19.65554,5.00427 63.77801,5.00427 44.12247,0 63.77801,-5.00427 63.77801,-5.00427"
           id="path5653"
           inkscape:connector-curvature="0"
           sodipodi:nodetypes="czc" />
        <path
           sodipodi:nodetypes="czc"
           inkscape:connector-curvature="0"
           id="path5655"
           d="m 319.43094,662.89282 c 0,0 19.90554,6.25427 64.02801,6.25427 44.12247,0 63.52801,-6.25427 63.52801,-6.25427"
           style="fill:none;stroke:#000000;stroke-width:1.28125775;stroke-miterlimit:4;stroke-dasharray:1.28125783, 1.28125783;stroke-dashoffset:0" />
        <path
           style="fill:none;stroke:#000000;stroke-width:1.28125775;stroke-miterlimit:4;stroke-dasharray:1.28125783, 1.28125783;stroke-dashoffset:0"
           d="m 319.43094,667.37117 c 0,0 20.15554,6.25427 64.27801,6.25427 44.12247,0 63.27801,-6.25427 63.27801,-6.25427"
           id="path5657"
           inkscape:connector-curvature="0"
           sodipodi:nodetypes="czc" />
        <path
           transform="translate(-31.819805,10.606602)"
           d="m 395.62623,219.56717 a 3.5355339,3.5355339 0 1 1 -7.07107,0 3.5355339,3.5355339 0 1 1 7.07107,0 z"
           sodipodi:ry="3.5355339"
           sodipodi:rx="3.5355339"
           sodipodi:cy="219.56717"
           sodipodi:cx="392.0907"
           id="path4066"
           style="fill:#ececec;fill-opacity:1;stroke:none"
           sodipodi:type="arc" />
        <path
           sodipodi:nodetypes="cscsc"
           inkscape:connector-curvature="0"
           id="path4073"
           transform="translate(203.47992,133.28012)"
           d="m 157.21875,94.21875 c 1.61633,0.571692 1.27131,3.093079 0.60339,3.826524 -0.79277,0.870533 -2.69151,0.618267 -3.29089,-0.232774 -0.007,2.161088 2.91128,2.95466 4.54979,1.078785 1.2803,-1.465761 0.6701,-5.186848 -1.86229,-4.672535 z"
           style="fill:#666666;fill-opacity:1;stroke:none" />
      </g>
    </g>
  </g>
</svg>
