<?xml version="1.0" encoding="UTF-8" standalone="no"?>
<!-- Created with Inkscape (http://www.inkscape.org/) -->

<svg
   xmlns:dc="http://purl.org/dc/elements/1.1/"
   xmlns:cc="http://creativecommons.org/ns#"
   xmlns:rdf="http://www.w3.org/1999/02/22-rdf-syntax-ns#"
   xmlns:svg="http://www.w3.org/2000/svg"
   xmlns="http://www.w3.org/2000/svg"
   xmlns:xlink="http://www.w3.org/1999/xlink"
   xmlns:sodipodi="http://sodipodi.sourceforge.net/DTD/sodipodi-0.dtd"
   xmlns:inkscape="http://www.inkscape.org/namespaces/inkscape"
   width="150.45517"
   height="256.33749"
   id="svg3564"
   version="1.1"
   inkscape:version="0.48.1 "
   sodipodi:docname="Neues Dokument 5">
  <defs
     id="defs3566">
    <radialGradient
       inkscape:collect="always"
       xlink:href="#linearGradient4100"
       id="radialGradient4559"
       gradientUnits="userSpaceOnUse"
       gradientTransform="matrix(0.9062968,0.02631146,-0.00359612,0.08307527,56.77009,387.06044)"
       cx="588.70605"
       cy="454.64462"
       fx="588.70605"
       fy="454.64462"
       r="126.59381" />
    <linearGradient
       inkscape:collect="always"
       id="linearGradient4100">
      <stop
         style="stop-color:#000000;stop-opacity:1;"
         offset="0"
         id="stop4102" />
      <stop
         id="stop4127"
         offset="0.30016232"
         style="stop-color:#000000;stop-opacity:1" />
      <stop
         style="stop-color:#000000;stop-opacity:0;"
         offset="1"
         id="stop4104" />
    </linearGradient>
    <radialGradient
       inkscape:collect="always"
       xlink:href="#linearGradient3817"
       id="radialGradient4561"
       gradientUnits="userSpaceOnUse"
       gradientTransform="matrix(1.5770229,0,0,0.2952984,1862.5082,476.74989)"
       cx="-632.31848"
       cy="325.55734"
       fx="-632.31848"
       fy="325.55734"
       r="36.551537" />
    <linearGradient
       inkscape:collect="always"
       id="linearGradient3817">
      <stop
         style="stop-color:#aad400;stop-opacity:1"
         offset="0"
         id="stop3819" />
      <stop
         style="stop-color:#88aa00;stop-opacity:1"
         offset="1"
         id="stop3821" />
    </linearGradient>
    <linearGradient
       inkscape:collect="always"
       xlink:href="#linearGradient3991"
       id="linearGradient4563"
       gradientUnits="userSpaceOnUse"
       x1="523.74579"
       y1="363.27216"
       x2="523.74573"
       y2="304.15118" />
    <linearGradient
       inkscape:collect="always"
       id="linearGradient3991">
      <stop
         style="stop-color:#333333;stop-opacity:1"
         offset="0"
         id="stop3993" />
      <stop
         style="stop-color:#8eb100;stop-opacity:1"
         offset="1"
         id="stop3995" />
    </linearGradient>
    <radialGradient
       inkscape:collect="always"
       xlink:href="#linearGradient3817"
       id="radialGradient4565"
       gradientUnits="userSpaceOnUse"
       gradientTransform="matrix(1.3964184,-0.10070745,0.26584229,3.6861929,1647.0179,-804.74751)"
       cx="-636.16425"
       cy="378.40634"
       fx="-636.16425"
       fy="378.40634"
       r="37.40134" />
    <radialGradient
       inkscape:collect="always"
       xlink:href="#linearGradient4518"
       id="radialGradient4567"
       gradientUnits="userSpaceOnUse"
       gradientTransform="matrix(1.137822,-0.03210137,0.00968952,0.31315574,-88.083511,39.198368)"
       cx="413.36887"
       cy="76.983963"
       fx="413.36887"
       fy="76.983963"
       r="59.391502" />
    <linearGradient
       id="linearGradient4518">
      <stop
         style="stop-color:#ffffff;stop-opacity:0.47894737;"
         offset="0"
         id="stop4520" />
      <stop
         style="stop-color:#ffffff;stop-opacity:0;"
         offset="1"
         id="stop4522" />
    </linearGradient>
    <radialGradient
       r="59.391502"
       fy="76.983963"
       fx="413.36887"
       cy="76.983963"
       cx="413.36887"
       gradientTransform="matrix(1.137822,-0.03210137,0.00968952,0.31315574,-88.083511,39.198368)"
       gradientUnits="userSpaceOnUse"
       id="radialGradient3562"
       xlink:href="#linearGradient4518"
       inkscape:collect="always" />
  </defs>
  <sodipodi:namedview
     id="base"
     pagecolor="#ffffff"
     bordercolor="#666666"
     borderopacity="1.0"
     inkscape:pageopacity="0.0"
     inkscape:pageshadow="2"
     inkscape:zoom="0.35"
     inkscape:cx="75.22758"
     inkscape:cy="128.16874"
     inkscape:document-units="px"
     inkscape:current-layer="layer1"
     showgrid="false"
     fit-margin-top="0"
     fit-margin-left="0"
     fit-margin-right="0"
     fit-margin-bottom="0"
     inkscape:window-width="536"
     inkscape:window-height="463"
     inkscape:window-x="22"
     inkscape:window-y="22"
     inkscape:window-maximized="0" />
  <metadata
     id="metadata3569">
    <rdf:RDF>
      <cc:Work
         rdf:about="">
        <dc:format>image/svg+xml</dc:format>
        <dc:type
           rdf:resource="http://purl.org/dc/dcmitype/StillImage" />
        <dc:title></dc:title>
      </cc:Work>
    </rdf:RDF>
  </metadata>
  <g
     inkscape:label="Ebene 1"
     inkscape:groupmode="layer"
     id="layer1"
     transform="translate(-274.77242,-404.19344)">
    <g
       id="g4532"
       transform="matrix(0.87249043,0,0,0.87249043,-406.78529,-11.5539)">
      <path
         sodipodi:type="arc"
         style="color:#000000;fill:url(#radialGradient4559);fill-opacity:1;fill-rule:nonzero;stroke:none;stroke-width:0.30000001;marker:none;visibility:visible;display:inline;overflow:visible;enable-background:accumulate"
         id="path4004"
         sodipodi:cx="590.44147"
         sodipodi:cy="438.73636"
         sodipodi:rx="126.59381"
         sodipodi:ry="17.060495"
         d="m 717.03528,438.73636 c 0,9.42225 -56.67798,17.06049 -126.59381,17.06049 -69.91583,0 -126.59381,-7.63824 -126.59381,-17.06049 0,-9.42225 56.67798,-17.0605 126.59381,-17.0605 69.91583,0 126.59381,7.63825 126.59381,17.0605 z"
         transform="matrix(0.68108784,-0.06719483,0.00974857,3.0539651,460.96565,-582.70469)" />
      <path
         inkscape:connector-curvature="0"
         id="path3985"
         d="m 807.68509,582.73344 c 6.0376,-15.02353 29.40256,-20.64061 57.46606,-20.64061 l 0,0 c 28.64533,0 52.3953,5.8524 57.81915,21.58722"
         style="color:#000000;fill:url(#radialGradient4561);fill-opacity:1;fill-rule:nonzero;stroke:none;stroke-width:0.30000001;marker:none;visibility:visible;display:inline;overflow:visible;enable-background:accumulate" />
      <path
         transform="matrix(1.3376005,0,0,1.0308873,169.76134,231.92063)"
         d="m 558.52671,342.03006 c 0,9.59136 -17.30332,17.36669 -38.64805,17.36669 -21.34473,0 -38.64805,-7.77533 -38.64805,-17.36669 0,-9.59136 17.30332,-17.36669 38.64805,-17.36669 21.34473,0 38.64805,7.77533 38.64805,17.36669 z"
         sodipodi:ry="17.366693"
         sodipodi:rx="38.648052"
         sodipodi:cy="342.03006"
         sodipodi:cx="519.87866"
         id="path3813"
         style="color:#000000;fill:url(#linearGradient4563);fill-opacity:1;fill-rule:nonzero;stroke:none;stroke-width:0.30000001;marker:none;visibility:visible;display:inline;overflow:visible;enable-background:accumulate"
         sodipodi:type="arc" />
      <g
         transform="matrix(-0.31173266,-1.257523,1.257523,-0.31173266,215.74989,1545.8606)"
         id="g3807">
        <rect
           ry="5.5796099"
           rx="5.6330385"
           y="631.07483"
           x="505.04471"
           height="11.15922"
           width="158.7489"
           id="rect3765"
           style="color:#000000;fill:#800080;fill-opacity:1;fill-rule:nonzero;stroke:none;stroke-width:0.30000001;marker:none;visibility:visible;display:inline;overflow:visible;enable-background:accumulate" />
        <rect
           style="color:#000000;fill:#ffffff;fill-opacity:0.51711031;fill-rule:nonzero;stroke:none;stroke-width:0.30000001;marker:none;visibility:visible;display:inline;overflow:visible;enable-background:accumulate"
           id="rect3767"
           width="152.14259"
           height="3.2397733"
           x="504.68472"
           y="632.87469"
           rx="1.0624417"
           ry="1.7165029" />
        <path
           sodipodi:nodetypes="cccc"
           inkscape:connector-curvature="0"
           id="path3769"
           d="m 659.36988,642.21994 16.39441,-5.6345 -16.39833,-5.38454 c -2.30557,3.67301 -1.41464,7.34603 0.004,11.01904 z"
           style="fill:#f2deb7;fill-opacity:1;stroke:none" />
        <path
           id="path3771"
           d="m 669.65625,634.60048 c -0.16675,0.5323 -0.25,1.10605 -0.25,1.6875 0,0.82671 0.17304,1.59444 0.5,2.3125 l 5.84375,-2 -6.09375,-2 z"
           style="color:#000000;fill:#800080;fill-opacity:1;fill-rule:nonzero;stroke:none;stroke-width:0.30000001;marker:none;visibility:visible;display:inline;overflow:visible;enable-background:accumulate"
           inkscape:connector-curvature="0" />
      </g>
      <g
         transform="matrix(0.049977,-1.294621,1.294621,0.049977,-15.816331,1318.4705)"
         id="g3801">
        <rect
           ry="5.5796099"
           rx="5.6330385"
           y="652.68451"
           x="505.04471"
           height="11.15922"
           width="158.7489"
           id="rect3773"
           style="color:#000000;fill:#d4aa00;fill-opacity:1;fill-rule:nonzero;stroke:none;stroke-width:0.30000001;marker:none;visibility:visible;display:inline;overflow:visible;enable-background:accumulate" />
        <rect
           style="color:#000000;fill:#ffffff;fill-opacity:0.51711031;fill-rule:nonzero;stroke:none;stroke-width:0.30000001;marker:none;visibility:visible;display:inline;overflow:visible;enable-background:accumulate"
           id="rect3775"
           width="152.14259"
           height="3.2397733"
           x="504.68472"
           y="654.48438"
           rx="1.0624417"
           ry="1.7165029" />
        <path
           sodipodi:nodetypes="cccc"
           inkscape:connector-curvature="0"
           id="path3777"
           d="m 659.36988,663.8296 16.39441,-5.6345 -16.39833,-5.38454 c -2.30557,3.67301 -1.41464,7.34603 0.004,11.01904 z"
           style="fill:#f2deb7;fill-opacity:1;stroke:none" />
        <path
           id="path3779"
           d="m 669.65625,656.21014 c -0.16675,0.5323 -0.25,1.10605 -0.25,1.6875 0,0.82671 0.17304,1.59444 0.5,2.3125 l 5.84375,-2 -6.09375,-2 z"
           style="color:#000000;fill:#d4aa00;fill-opacity:1;fill-rule:nonzero;stroke:none;stroke-width:0.30000001;marker:none;visibility:visible;display:inline;overflow:visible;enable-background:accumulate"
           inkscape:connector-curvature="0" />
      </g>
      <g
         transform="matrix(0.2011781,-1.2798705,1.2798705,0.2011781,-109.24586,1211.5712)"
         id="g3795">
        <rect
           ry="5.5796099"
           rx="5.6330385"
           y="678.0343"
           x="505.04471"
           height="11.15922"
           width="158.7489"
           id="rect3781"
           style="color:#000000;fill:#006680;fill-opacity:1;fill-rule:nonzero;stroke:none;stroke-width:0.30000001;marker:none;visibility:visible;display:inline;overflow:visible;enable-background:accumulate" />
        <rect
           style="color:#000000;fill:#ffffff;fill-opacity:0.51711031;fill-rule:nonzero;stroke:none;stroke-width:0.30000001;marker:none;visibility:visible;display:inline;overflow:visible;enable-background:accumulate"
           id="rect3783"
           width="152.14259"
           height="3.2397733"
           x="504.68472"
           y="679.83417"
           rx="1.0624417"
           ry="1.7165029" />
        <path
           sodipodi:nodetypes="cccc"
           inkscape:connector-curvature="0"
           id="path3785"
           d="m 659.36988,689.1794 16.39441,-5.6345 -16.39833,-5.38454 c -2.30557,3.67301 -1.41464,7.34603 0.004,11.01904 z"
           style="fill:#f2deb7;fill-opacity:1;stroke:none" />
        <path
           id="path3787"
           d="m 669.65625,681.55994 c -0.16675,0.5323 -0.25,1.10605 -0.25,1.6875 0,0.82671 0.17304,1.59444 0.5,2.3125 l 5.84375,-2 -6.09375,-2 z"
           style="color:#000000;fill:#006680;fill-opacity:1;fill-rule:nonzero;stroke:none;stroke-width:0.30000001;marker:none;visibility:visible;display:inline;overflow:visible;enable-background:accumulate"
           inkscape:connector-curvature="0" />
      </g>
      <g
         transform="matrix(0.41320653,-1.2279257,1.2279257,0.41320653,-215.18565,1038.92)"
         id="g3789">
        <rect
           style="color:#000000;fill:#c83737;fill-opacity:1;fill-rule:nonzero;stroke:none;stroke-width:0.30000001;marker:none;visibility:visible;display:inline;overflow:visible;enable-background:accumulate"
           id="rect2982"
           width="158.7489"
           height="11.15922"
           x="505.04471"
           y="698.39728"
           rx="5.6330385"
           ry="5.5796099" />
        <rect
           ry="1.7165029"
           rx="1.0624417"
           y="700.19714"
           x="504.68472"
           height="3.2397733"
           width="152.14259"
           id="rect2984"
           style="color:#000000;fill:#ffffff;fill-opacity:0.51711031;fill-rule:nonzero;stroke:none;stroke-width:0.30000001;marker:none;visibility:visible;display:inline;overflow:visible;enable-background:accumulate" />
        <path
           style="fill:#f2deb7;fill-opacity:1;stroke:none"
           d="m 659.36988,709.54235 16.39441,-5.6345 -16.39833,-5.38454 c -2.30557,3.67301 -1.41464,7.34603 0.004,11.01904 z"
           id="path3758"
           inkscape:connector-curvature="0"
           sodipodi:nodetypes="cccc" />
        <path
           style="color:#000000;fill:#c83737;fill-opacity:1;fill-rule:nonzero;stroke:none;stroke-width:0.30000001;marker:none;visibility:visible;display:inline;overflow:visible;enable-background:accumulate"
           d="m 669.65625,701.92289 c -0.16675,0.5323 -0.25,1.10605 -0.25,1.6875 0,0.82671 0.17304,1.59444 0.5,2.3125 l 5.84375,-2 -6.09375,-2 z"
           id="path3760"
           inkscape:connector-curvature="0" />
      </g>
      <path
         sodipodi:nodetypes="csssssccssccc"
         inkscape:connector-curvature="0"
         id="rect3815"
         d="m 807.6772,582.58268 c -0.99244,2.46951 -1.52774,5.18617 -1.52774,8.18081 l 0,115.47581 c 0,21.21303 26.31407,34.29208 58.99052,34.29208 32.67644,0 58.99051,-13.07905 58.99051,-34.29208 l 0,-115.47581 c 0,-2.61693 -0.41951,-5.03017 -1.18277,-7.24445 l -6.11097,-0.0492 c -0.62871,9.31902 -23.54137,16.80515 -51.69677,16.80515 -28.55073,0 -51.69678,-7.6986 -51.69678,-17.1994 0,-0.1484 0.038,-0.296 0.0492,-0.44354 l -5.81527,-0.0492 z"
         style="color:#000000;fill:url(#radialGradient4565);fill-opacity:1;fill-rule:nonzero;stroke:none;stroke-width:0.30000001;marker:none;visibility:visible;display:inline;overflow:visible;enable-background:accumulate" />
      <path
         style="font-size:medium;font-style:normal;font-variant:normal;font-weight:normal;font-stretch:normal;text-indent:0;text-align:start;text-decoration:none;line-height:normal;letter-spacing:normal;word-spacing:normal;text-transform:none;direction:ltr;block-progression:tb;writing-mode:lr-tb;text-anchor:start;baseline-shift:baseline;color:#000000;fill:url(#radialGradient3562);fill-opacity:1;stroke:none;stroke-width:3.84797835;marker:none;visibility:visible;display:inline;overflow:visible;enable-background:accumulate;font-family:Sans;-inkscape-font-specification:Sans"
         d="m 335.78125,34.6875 c 0.90559,5.015062 6.77283,9.350463 15.3125,12.4375 9.29742,3.360955 21.95221,5.375 35.90625,5.375 13.95404,0 26.60883,-2.014045 35.90625,-5.375 8.53967,-3.087037 14.40691,-7.422438 15.3125,-12.4375 l -3.28125,0 C 434.02609,38.539274 429.20662,42.180218 421.40625,45 412.70782,48.144429 400.50671,50.15625 387,50.15625 373.4933,50.15625 361.26093,48.144429 352.5625,45 344.76353,42.180723 340.00197,38.538516 339.09375,34.6875 l -3.3125,0 z"
         transform="matrix(1.1461444,0,0,1.1461444,421.46639,544.09548)"
         id="path4008"
         inkscape:connector-curvature="0" />
    </g>
  </g>
</svg>
